{
	"asset":{
		"generator":"Khronos glTF Blender I/O v4.0.44",
		"version":"2.0"
	},
	"scene":0,
	"scenes":[
		{
			"name":"Scene",
			"nodes":[
				66
			]
		}
	],
	"nodes":[
		{
			"name":"mixamorig:HeadTop_End",
			"rotation":[
				0,
				0,
				1.0587911840678754e-22,
				1
			],
			"scale":[
				1,
				0.9999999403953552,
				0.9999999403953552
			],
			"translation":[
				1.6940663180250743e-15,
				178.191162109375,
				-2.8433802127838135
			]
		},
		{
			"children":[
				0
			],
			"name":"mixamorig:Head",
			"rotation":[
				1.8395065470855343e-09,
				0,
				5.293956551428101e-23,
				1
			],
			"scale":[
				1,
				0.9999999403953552,
				0.9999999403953552
			],
			"translation":[
				3.3881326360501486e-15,
				17.291107177734375,
				-0.2759140133857727
			]
		},
		{
			"children":[
				1
			],
			"name":"mixamorig:Neck",
			"rotation":[
				0.02330080419778824,
				8.884196123318559e-16,
				-5.295394171541776e-23,
				0.9997285008430481
			],
			"scale":[
				1,
				0.9999999403953552,
				0.9999999403953552
			],
			"translation":[
				5.4184867042447044e-14,
				40.066566467285156,
				-2.384185791015625e-07
			]
		},
		{
			"name":"mixamorig:LeftHandThumb4",
			"rotation":[
				1.257285386913054e-08,
				3.259629011154175e-09,
				1.539592808796897e-08,
				1
			],
			"scale":[
				0.9999999403953552,
				1,
				1.0000001192092896
			],
			"translation":[
				-2.1457302570343018,
				12.267072677612305,
				-5.3882598876953125e-05
			]
		},
		{
			"children":[
				3
			],
			"name":"mixamorig:LeftHandThumb3",
			"rotation":[
				-0.05213162675499916,
				2.765131625892536e-07,
				2.4212388893829484e-07,
				0.9986401796340942
			],
			"translation":[
				-0.7242815494537354,
				13.689542770385742,
				-4.0531158447265625e-05
			]
		},
		{
			"children":[
				4
			],
			"name":"mixamorig:LeftHandThumb2",
			"rotation":[
				0.03555178642272949,
				-4.748090134398808e-07,
				-3.580288421289879e-07,
				0.999367892742157
			],
			"scale":[
				0.9999999403953552,
				1,
				1
			],
			"translation":[
				2.8699779510498047,
				12.514425277709961,
				-4.291534423828125e-05
			]
		},
		{
			"children":[
				5
			],
			"name":"mixamorig:LeftHandThumb1",
			"rotation":[
				0.050930190831422806,
				0.03730565682053566,
				0.5897383093833923,
				0.8051230907440186
			],
			"scale":[
				0.9999999403953552,
				0.9999998807907104,
				0.9999998807907104
			],
			"translation":[
				-13.713449478149414,
				8.101251602172852,
				1.9713079929351807
			]
		},
		{
			"name":"mixamorig:LeftHandIndex4",
			"rotation":[
				1.103217073250562e-09,
				-2.546585164964199e-11,
				1.467697074986063e-09,
				1
			],
			"translation":[
				0.002963423728942871,
				14.540048599243164,
				-3.90615314245224e-05
			]
		},
		{
			"children":[
				7
			],
			"name":"mixamorig:LeftHandIndex3",
			"rotation":[
				0.01305966917425394,
				1.6798527724404266e-07,
				5.123620638869397e-09,
				0.9999147057533264
			],
			"scale":[
				1.0000001192092896,
				1,
				1
			],
			"translation":[
				-0.00276029109954834,
				16.55851936340332,
				1.6374513506889343e-05
			]
		},
		{
			"children":[
				8
			],
			"name":"mixamorig:LeftHandIndex2",
			"rotation":[
				-0.005798969883471727,
				-1.0073732426008064e-07,
				1.3578984159323682e-08,
				0.9999831914901733
			],
			"translation":[
				-0.0002009272575378418,
				17.120168685913086,
				-5.075708031654358e-05
			]
		},
		{
			"children":[
				9
			],
			"name":"mixamorig:LeftHandIndex1",
			"rotation":[
				-0.01593431830406189,
				-0.0005821360973641276,
				0.0365019291639328,
				0.9992063641548157
			],
			"translation":[
				-13.424468040466309,
				37.06303787231445,
				0.1682220995426178
			]
		},
		{
			"name":"mixamorig:LeftHandMiddle4",
			"rotation":[
				-2.756223471678254e-09,
				-1.0186339272078015e-10,
				5.657057045027614e-10,
				1
			],
			"scale":[
				1,
				1,
				1.0000001192092896
			],
			"translation":[
				9.495019912719727e-05,
				13.7822904586792,
				6.369221955537796e-05
			]
		},
		{
			"children":[
				11
			],
			"name":"mixamorig:LeftHandMiddle3",
			"rotation":[
				-0.0067999111488461494,
				-1.8648711019864095e-08,
				-5.963693983090934e-09,
				0.9999768733978271
			],
			"scale":[
				1.0000001192092896,
				1.0000001192092896,
				1
			],
			"translation":[
				0.002947598695755005,
				15.48427677154541,
				-6.45654508844018e-05
			]
		},
		{
			"children":[
				12
			],
			"name":"mixamorig:LeftHandMiddle2",
			"rotation":[
				0.013802015222609043,
				-7.962838566299979e-08,
				-1.738482424684662e-08,
				0.9999047517776489
			],
			"scale":[
				1.0000001192092896,
				1.000000238418579,
				1
			],
			"translation":[
				-0.0030431747436523438,
				16.648027420043945,
				7.249647751450539e-06
			]
		},
		{
			"children":[
				13
			],
			"name":"mixamorig:LeftHandMiddle1",
			"rotation":[
				-0.03404354676604271,
				-0.0013026049127802253,
				0.03821338340640068,
				0.9986886978149414
			],
			"scale":[
				0.9999999403953552,
				0.9999998211860657,
				1
			],
			"translation":[
				-4.384112358093262,
				43.155975341796875,
				0.5015481114387512
			]
		},
		{
			"name":"mixamorig:LeftHandRing4",
			"rotation":[
				-9.731593308970332e-11,
				-1.4551915228366852e-11,
				1.7644197214394808e-10,
				1
			],
			"translation":[
				-0.007532745599746704,
				13.139281272888184,
				8.921138942241669e-06
			]
		},
		{
			"children":[
				15
			],
			"name":"mixamorig:LeftHandRing3",
			"rotation":[
				-0.03727463632822037,
				1.720504450020144e-08,
				-1.5768412353622807e-08,
				0.9993050694465637
			],
			"scale":[
				0.9999999403953552,
				0.9999998211860657,
				1
			],
			"translation":[
				0.007496505975723267,
				14.514683723449707,
				-3.946572542190552e-05
			]
		},
		{
			"children":[
				16
			],
			"name":"mixamorig:LeftHandRing2",
			"rotation":[
				0.017695123329758644,
				1.1038447667033324e-07,
				-4.781962825717301e-09,
				0.9998434782028198
			],
			"scale":[
				0.9999999403953552,
				0.9999998807907104,
				0.9999997615814209
			],
			"translation":[
				3.489851951599121e-05,
				15.463871002197266,
				-3.1227245926856995e-06
			]
		},
		{
			"children":[
				17
			],
			"name":"mixamorig:LeftHandRing1",
			"rotation":[
				-0.03246296942234039,
				-0.0015665125101804733,
				0.04817001521587372,
				0.9983102679252625
			],
			"scale":[
				0.9999999403953552,
				0.9999999403953552,
				0.9999999403953552
			],
			"translation":[
				4.612102508544922,
				44.30562973022461,
				0.39878401160240173
			]
		},
		{
			"name":"mixamorig:LeftHandPinky4",
			"rotation":[
				-2.764863893389702e-09,
				-3.637978807091713e-11,
				5.557012627832592e-10,
				1
			],
			"scale":[
				0.9999999403953552,
				1,
				1
			],
			"translation":[
				0.0020136237144470215,
				10.894719123840332,
				-6.119906902313232e-05
			]
		},
		{
			"children":[
				19
			],
			"name":"mixamorig:LeftHandPinky3",
			"rotation":[
				0.01467963494360447,
				1.5501642280923988e-07,
				4.12518517123317e-08,
				0.9998922348022461
			],
			"scale":[
				0.9999999403953552,
				0.9999999403953552,
				1
			],
			"translation":[
				-0.0025292038917541504,
				11.890410423278809,
				3.881379961967468e-05
			]
		},
		{
			"children":[
				20
			],
			"name":"mixamorig:LeftHandPinky2",
			"rotation":[
				-0.008715519681572914,
				-1.2714492925169907e-07,
				-7.449955319316359e-08,
				0.9999620318412781
			],
			"scale":[
				0.9999999403953552,
				0.9999999403953552,
				0.9999998807907104
			],
			"translation":[
				0.0005174875259399414,
				14.988764762878418,
				1.0672956705093384e-05
			]
		},
		{
			"children":[
				21
			],
			"name":"mixamorig:LeftHandPinky1",
			"rotation":[
				-0.03169762343168259,
				-0.0012285031843930483,
				0.03870878741145134,
				0.998746931552887
			],
			"scale":[
				0.9999999403953552,
				0.9999997615814209,
				0.9999998807907104
			],
			"translation":[
				13.196495056152344,
				42.3321418762207,
				0.41261473298072815
			]
		},
		{
			"children":[
				6,
				10,
				14,
				18,
				22
			],
			"name":"mixamorig:LeftHand",
			"rotation":[
				-0.0019147110870108008,
				0.024099722504615784,
				-0.036860205233097076,
				0.9990279674530029
			],
			"scale":[
				0.9999998807907104,
				1.000000238418579,
				0.9999999403953552
			],
			"translation":[
				-1.430511474609375e-06,
				52.08798599243164,
				4.407763481140137e-05
			]
		},
		{
			"children":[
				23
			],
			"name":"mixamorig:LeftForeArm",
			"rotation":[
				-0.04051953926682472,
				9.493676770944148e-05,
				-0.002339240862056613,
				0.999176025390625
			],
			"scale":[
				1.0000001192092896,
				1.0000001192092896,
				1.0000001192092896
			],
			"translation":[
				-2.644956111907959e-06,
				57.645267486572266,
				-0.00010389997623860836
			]
		},
		{
			"children":[
				24
			],
			"name":"mixamorig:LeftArm",
			"rotation":[
				-0.07800635695457458,
				-0.00012282724492251873,
				0.0015689792344346642,
				0.9969516396522522
			],
			"translation":[
				3.6954879760742188e-06,
				41.07473373413086,
				-1.8307939171791077e-05
			]
		},
		{
			"children":[
				25
			],
			"name":"mixamorig:LeftShoulder",
			"rotation":[
				0.5543335676193237,
				0.43698862195014954,
				-0.5625776648521423,
				0.4304201304912567
			],
			"scale":[
				1.0000001192092896,
				1.000000238418579,
				1.0000001192092896
			],
			"translation":[
				19.90934944152832,
				35.13804244995117,
				-0.2902694642543793
			]
		},
		{
			"name":"mixamorig:RightHandThumb4",
			"rotation":[
				0,
				2.3283053263156717e-10,
				-2.2715539671480656e-08,
				1
			],
			"scale":[
				1.0000001192092896,
				1,
				1
			],
			"translation":[
				0.7912094593048096,
				12.842782974243164,
				-6.461143493652344e-05
			]
		},
		{
			"children":[
				27
			],
			"name":"mixamorig:RightHandThumb3",
			"rotation":[
				-0.08196177333593369,
				1.9530354222752067e-07,
				1.5555950483303604e-07,
				0.9966354966163635
			],
			"scale":[
				1,
				0.9999999403953552,
				0.9999998807907104
			],
			"translation":[
				1.8013453483581543,
				13.63895034790039,
				9.822845458984375e-05
			]
		},
		{
			"children":[
				28
			],
			"name":"mixamorig:RightHandThumb2",
			"rotation":[
				0.05041376128792763,
				4.207944925838092e-08,
				5.32986845769301e-08,
				0.9987283945083618
			],
			"scale":[
				0.9999999403953552,
				1,
				0.9999999403953552
			],
			"translation":[
				-2.5925450325012207,
				11.750530242919922,
				1.3589859008789062e-05
			]
		},
		{
			"children":[
				29
			],
			"name":"mixamorig:RightHandThumb1",
			"rotation":[
				0.042995501309633255,
				-0.030216939747333527,
				-0.5741981863975525,
				0.8170279860496521
			],
			"scale":[
				1.0000001192092896,
				1.0000001192092896,
				1.0000001192092896
			],
			"translation":[
				12.645487785339355,
				7.997430324554443,
				1.5416464805603027
			]
		},
		{
			"name":"mixamorig:RightHandIndex4",
			"rotation":[
				-4.6202330850064754e-10,
				1.0913943360169043e-11,
				6.825758291917339e-10,
				1
			],
			"scale":[
				1,
				0.9999999403953552,
				1.0000001192092896
			],
			"translation":[
				-0.001096963882446289,
				14.551610946655273,
				6.490200757980347e-05
			]
		},
		{
			"children":[
				31
			],
			"name":"mixamorig:RightHandIndex3",
			"rotation":[
				0.009543576277792454,
				-2.387191599950711e-08,
				-3.6772547229446673e-09,
				0.9999544620513916
			],
			"scale":[
				0.9999999403953552,
				1,
				0.9999999403953552
			],
			"translation":[
				-0.00037491321563720703,
				16.478147506713867,
				4.435330629348755e-05
			]
		},
		{
			"children":[
				32
			],
			"name":"mixamorig:RightHandIndex2",
			"rotation":[
				0.01633652113378048,
				1.3753396199689405e-09,
				-8.968815023990828e-09,
				0.9998665452003479
			],
			"scale":[
				1,
				0.9999999403953552,
				0.9999998807907104
			],
			"translation":[
				0.0014744997024536133,
				17.671062469482422,
				8.016824722290039e-06
			]
		},
		{
			"children":[
				33
			],
			"name":"mixamorig:RightHandIndex1",
			"rotation":[
				-0.03344446420669556,
				0.0017837680643424392,
				-0.053230930119752884,
				0.9980204701423645
			],
			"scale":[
				1.0000001192092896,
				1,
				1
			],
			"translation":[
				13.30036735534668,
				36.779850006103516,
				0.5439816117286682
			]
		},
		{
			"name":"mixamorig:RightHandMiddle4",
			"rotation":[
				-1.4115359547872686e-08,
				4.449248525162375e-09,
				3.168679985066092e-09,
				1
			],
			"scale":[
				0.9999999403953552,
				0.9999999403953552,
				0.9999998807907104
			],
			"translation":[
				-0.0022835731506347656,
				13.935338973999023,
				5.806796252727509e-07
			]
		},
		{
			"children":[
				35
			],
			"name":"mixamorig:RightHandMiddle3",
			"rotation":[
				0.0319557785987854,
				1.5865325053709967e-07,
				5.13217157660506e-09,
				0.9994893074035645
			],
			"scale":[
				0.9999999403953552,
				1,
				0.9999998807907104
			],
			"translation":[
				0.0011996030807495117,
				15.75881290435791,
				1.373235136270523e-06
			]
		},
		{
			"children":[
				36
			],
			"name":"mixamorig:RightHandMiddle2",
			"rotation":[
				-0.007405092939734459,
				3.08872856180642e-08,
				-5.158795168824781e-09,
				0.9999725818634033
			],
			"scale":[
				0.9999999403953552,
				1,
				1
			],
			"translation":[
				0.0010855793952941895,
				16.537153244018555,
				-2.1189916878938675e-05
			]
		},
		{
			"children":[
				37
			],
			"name":"mixamorig:RightHandMiddle1",
			"rotation":[
				-0.021694989874958992,
				0.001178979524411261,
				-0.054254502058029175,
				0.9982907176017761
			],
			"translation":[
				4.114801406860352,
				42.494964599609375,
				0.16349467635154724
			]
		},
		{
			"name":"mixamorig:RightHandRing4",
			"rotation":[
				3.262175596319139e-08,
				1.3940733900597024e-08,
				1.3431417755782604e-08,
				1
			],
			"scale":[
				1,
				1,
				1.0000001192092896
			],
			"translation":[
				0.0005877017974853516,
				12.573263168334961,
				-2.750009298324585e-05
			]
		},
		{
			"children":[
				39
			],
			"name":"mixamorig:RightHandRing3",
			"rotation":[
				-0.009414149448275566,
				2.4055385239307725e-08,
				2.2061682258822657e-08,
				0.9999556541442871
			],
			"scale":[
				1,
				0.9999999403953552,
				0.9999998807907104
			],
			"translation":[
				-0.0006117820739746094,
				14.336419105529785,
				3.3676624298095703e-06
			]
		},
		{
			"children":[
				40
			],
			"name":"mixamorig:RightHandRing2",
			"rotation":[
				0.004798841197043657,
				8.898599190843015e-08,
				-2.671035126411425e-08,
				0.9999884963035583
			],
			"scale":[
				1,
				0.9999999403953552,
				1
			],
			"translation":[
				2.8133392333984375e-05,
				15.387348175048828,
				8.060038089752197e-05
			]
		},
		{
			"children":[
				41
			],
			"name":"mixamorig:RightHandRing1",
			"rotation":[
				-0.029421286657452583,
				0.0018598409369587898,
				-0.06306533515453339,
				0.9975739121437073
			],
			"scale":[
				1.0000001192092896,
				1.0000001192092896,
				1
			],
			"translation":[
				-4.428435802459717,
				44.39801025390625,
				0.3964397609233856
			]
		},
		{
			"name":"mixamorig:RightHandPinky4",
			"rotation":[
				-6.312014466658411e-09,
				2.325642178835352e-10,
				4.7748475312525684e-11,
				1
			],
			"scale":[
				0.9999998807907104,
				1,
				0.9999999403953552
			],
			"translation":[
				-0.0015062382444739342,
				10.687711715698242,
				9.626150131225586e-06
			]
		},
		{
			"children":[
				43
			],
			"name":"mixamorig:RightHandPinky3",
			"rotation":[
				0.03150263801217079,
				-4.7397843871976875e-08,
				9.67727942224883e-09,
				0.9995036721229553
			],
			"scale":[
				1,
				0.9999999403953552,
				1
			],
			"translation":[
				0.0006193602457642555,
				11.812983512878418,
				1.7881393432617188e-05
			]
		},
		{
			"children":[
				44
			],
			"name":"mixamorig:RightHandPinky2",
			"rotation":[
				0.0019869147799909115,
				2.168694557269646e-09,
				-6.091079995940163e-08,
				0.9999980330467224
			],
			"scale":[
				0.9999998807907104,
				1,
				1
			],
			"translation":[
				0.0008860183879733086,
				14.798595428466797,
				2.130866050720215e-05
			]
		},
		{
			"children":[
				45
			],
			"name":"mixamorig:RightHandPinky1",
			"rotation":[
				-0.03785811364650726,
				0.00193471135571599,
				-0.05100192502140999,
				0.9979788661003113
			],
			"scale":[
				1.0000001192092896,
				1,
				1
			],
			"translation":[
				-12.986733436584473,
				42.676246643066406,
				0.5635950565338135
			]
		},
		{
			"children":[
				30,
				34,
				38,
				42,
				46
			],
			"name":"mixamorig:RightHand",
			"rotation":[
				-0.0014734372962266207,
				-0.027088459581136703,
				0.04458307847380638,
				0.9986372590065002
			],
			"scale":[
				0.9999999403953552,
				0.9999999403953552,
				1
			],
			"translation":[
				1.2516975402832031e-06,
				52.08576965332031,
				-5.0844624638557434e-05
			]
		},
		{
			"children":[
				47
			],
			"name":"mixamorig:RightForeArm",
			"rotation":[
				-0.04033772647380829,
				5.8902540331473574e-05,
				-0.0014593491796404123,
				0.9991850256919861
			],
			"scale":[
				0.9999998807907104,
				1,
				0.9999999403953552
			],
			"translation":[
				2.5779008865356445e-06,
				57.64799118041992,
				-3.195134922862053e-05
			]
		},
		{
			"children":[
				48
			],
			"name":"mixamorig:RightArm",
			"rotation":[
				-0.07825757563114166,
				-0.0003076296707149595,
				0.003918444737792015,
				0.996925413608551
			],
			"scale":[
				0.9999999403953552,
				1,
				1
			],
			"translation":[
				-5.960464477539063e-08,
				41.074737548828125,
				-5.155801773071289e-06
			]
		},
		{
			"children":[
				49
			],
			"name":"mixamorig:RightShoulder",
			"rotation":[
				0.5560956001281738,
				-0.4356032609939575,
				0.5609580278396606,
				0.4316636919975281
			],
			"scale":[
				1.0000003576278687,
				1.000000238418579,
				1.0000001192092896
			],
			"translation":[
				-19.90934944152832,
				35.13241958618164,
				-0.16972240805625916
			]
		},
		{
			"children":[
				2,
				26,
				50
			],
			"name":"mixamorig:Spine2",
			"rotation":[
				-1.4901161193847656e-08,
				1.774778393503042e-15,
				-2.1666619717287272e-17,
				1
			],
			"translation":[
				7.753217149243999e-14,
				35.61476135253906,
				-1.1920928955078125e-06
			]
		},
		{
			"children":[
				51
			],
			"name":"mixamorig:Spine1",
			"rotation":[
				-1.862645149230957e-09,
				1.774778393503042e-15,
				-7.71777709485451e-17,
				1
			],
			"translation":[
				6.10373432569436e-14,
				31.162900924682617,
				-9.5367431640625e-07
			]
		},
		{
			"children":[
				52
			],
			"name":"mixamorig:Spine",
			"rotation":[
				-0.023300789296627045,
				2.6652590487538045e-15,
				5.55262720928553e-17,
				0.9997285008430481
			],
			"scale":[
				1,
				0.9999998807907104,
				0.9999998807907104
			],
			"translation":[
				2.842176364051263e-14,
				26.682083129882812,
				-1.2444382905960083
			]
		},
		{
			"name":"mixamorig:LeftToe_End",
			"rotation":[
				5.1470127715447234e-08,
				2.802353549213876e-07,
				-4.254361840594356e-07,
				1
			],
			"scale":[
				0.9999999403953552,
				1,
				0.9999999403953552
			],
			"translation":[
				-2.779066562652588e-06,
				13.326619148254395,
				6.705522537231445e-06
			]
		},
		{
			"children":[
				54
			],
			"name":"mixamorig:LeftToeBase",
			"rotation":[
				0.4603251814842224,
				0.00448713218793273,
				-0.0023265837226063013,
				0.8877360224723816
			],
			"scale":[
				0.9999999403953552,
				0.9999998807907104,
				1
			],
			"translation":[
				2.305954694747925e-06,
				40.96846389770508,
				1.9073486328125e-06
			]
		},
		{
			"children":[
				55
			],
			"name":"mixamorig:LeftFoot",
			"rotation":[
				0.32375213503837585,
				0.010147128254175186,
				-0.0034721032716333866,
				0.9460811614990234
			],
			"scale":[
				0.9999999403953552,
				0.9999998807907104,
				1
			],
			"translation":[
				-3.923894837498665e-06,
				61.42535400390625,
				-1.0654330253601074e-06
			]
		},
		{
			"children":[
				56
			],
			"name":"mixamorig:LeftLeg",
			"rotation":[
				-0.032580699771642685,
				0.0012649439740926027,
				-0.038957398384809494,
				0.9987087845802307
			],
			"scale":[
				0.9999998807907104,
				1,
				0.9999999403953552
			],
			"translation":[
				-3.1748786568641663e-06,
				76.4950180053711,
				3.302484401501715e-07
			]
		},
		{
			"children":[
				57
			],
			"name":"mixamorig:LeftUpLeg",
			"rotation":[
				-0.0005960225826129317,
				-0.011665046215057373,
				-0.9986109733581543,
				0.051378462463617325
			],
			"scale":[
				1.0000288486480713,
				1,
				1.0000014305114746
			],
			"translation":[
				31.268878936767578,
				-14.785598754882812,
				-2.4644556045532227
			]
		},
		{
			"name":"mixamorig:RightToe_End",
			"rotation":[
				7.4214763223778846e-09,
				-1.454754823271287e-07,
				2.753677108557895e-07,
				1
			],
			"scale":[
				1.0000001192092896,
				1,
				1.0000001192092896
			],
			"translation":[
				-1.3232231140136719e-05,
				13.387027740478516,
				-3.7960708141326904e-06
			]
		},
		{
			"children":[
				59
			],
			"name":"mixamorig:RightToeBase",
			"rotation":[
				0.4637048542499542,
				-0.00416111946105957,
				0.0021777059882879257,
				0.8859773278236389
			],
			"scale":[
				0.9999998211860657,
				0.9999998807907104,
				0.9999999403953552
			],
			"translation":[
				5.260109901428223e-06,
				40.74839401245117,
				7.748603820800781e-07
			]
		},
		{
			"children":[
				60
			],
			"name":"mixamorig:RightFoot",
			"rotation":[
				0.31864792108535767,
				-0.010343872010707855,
				0.003477221354842186,
				0.9478103518486023
			],
			"translation":[
				-6.138579919934273e-06,
				61.41763687133789,
				-3.0174851417541504e-07
			]
		},
		{
			"children":[
				61
			],
			"name":"mixamorig:RightLeg",
			"rotation":[
				-0.03026026487350464,
				-0.0011737485183402896,
				0.038963932543992996,
				0.9987816214561462
			],
			"scale":[
				1,
				1.0000001192092896,
				1
			],
			"translation":[
				-2.864748239517212e-06,
				76.49246978759766,
				-1.0300573194399476e-06
			]
		},
		{
			"children":[
				62
			],
			"name":"mixamorig:RightUpLeg",
			"rotation":[
				-0.0005580353899858892,
				0.010924261063337326,
				0.9986193180084229,
				0.05138063430786133
			],
			"scale":[
				1.0000287294387817,
				1,
				1.0000011920928955
			],
			"translation":[
				-31.268878936767578,
				-14.785598754882812,
				-2.2803280353546143
			]
		},
		{
			"children":[
				53,
				58,
				63
			],
			"name":"mixamorig:Hips",
			"rotation":[
				-0.7071067690849304,
				1.2560739454502297e-15,
				-1.2560738395711113e-15,
				0.7071067690849304
			],
			"translation":[
				2.8421756864249054e-14,
				6.905938625335693,
				-186.95529174804688
			]
		},
		{
			"mesh":0,
			"name":"Body.001",
			"skin":0
		},
		{
			"children":[
				65,
				64
			],
			"name":"Armature",
			"rotation":[
				0.5,
				0.5,
				-0.5,
				0.5000000596046448
			],
			"scale":[
				0.009999999776482582,
				0.009999999776482582,
				0.009999999776482582
			]
		}
	],
	"animations":[
		{
			"channels":[
				{
					"sampler":0,
					"target":{
						"node":64,
						"path":"translation"
					}
				},
				{
					"sampler":1,
					"target":{
						"node":64,
						"path":"rotation"
					}
				},
				{
					"sampler":2,
					"target":{
						"node":64,
						"path":"scale"
					}
				},
				{
					"sampler":3,
					"target":{
						"node":53,
						"path":"translation"
					}
				},
				{
					"sampler":4,
					"target":{
						"node":53,
						"path":"rotation"
					}
				},
				{
					"sampler":5,
					"target":{
						"node":53,
						"path":"scale"
					}
				},
				{
					"sampler":6,
					"target":{
						"node":52,
						"path":"translation"
					}
				},
				{
					"sampler":7,
					"target":{
						"node":52,
						"path":"rotation"
					}
				},
				{
					"sampler":8,
					"target":{
						"node":52,
						"path":"scale"
					}
				},
				{
					"sampler":9,
					"target":{
						"node":51,
						"path":"translation"
					}
				},
				{
					"sampler":10,
					"target":{
						"node":51,
						"path":"rotation"
					}
				},
				{
					"sampler":11,
					"target":{
						"node":51,
						"path":"scale"
					}
				},
				{
					"sampler":12,
					"target":{
						"node":2,
						"path":"translation"
					}
				},
				{
					"sampler":13,
					"target":{
						"node":2,
						"path":"rotation"
					}
				},
				{
					"sampler":14,
					"target":{
						"node":2,
						"path":"scale"
					}
				},
				{
					"sampler":15,
					"target":{
						"node":1,
						"path":"translation"
					}
				},
				{
					"sampler":16,
					"target":{
						"node":1,
						"path":"rotation"
					}
				},
				{
					"sampler":17,
					"target":{
						"node":1,
						"path":"scale"
					}
				},
				{
					"sampler":18,
					"target":{
						"node":0,
						"path":"translation"
					}
				},
				{
					"sampler":19,
					"target":{
						"node":0,
						"path":"rotation"
					}
				},
				{
					"sampler":20,
					"target":{
						"node":0,
						"path":"scale"
					}
				},
				{
					"sampler":21,
					"target":{
						"node":26,
						"path":"translation"
					}
				},
				{
					"sampler":22,
					"target":{
						"node":26,
						"path":"rotation"
					}
				},
				{
					"sampler":23,
					"target":{
						"node":26,
						"path":"scale"
					}
				},
				{
					"sampler":24,
					"target":{
						"node":25,
						"path":"translation"
					}
				},
				{
					"sampler":25,
					"target":{
						"node":25,
						"path":"rotation"
					}
				},
				{
					"sampler":26,
					"target":{
						"node":25,
						"path":"scale"
					}
				},
				{
					"sampler":27,
					"target":{
						"node":24,
						"path":"translation"
					}
				},
				{
					"sampler":28,
					"target":{
						"node":24,
						"path":"rotation"
					}
				},
				{
					"sampler":29,
					"target":{
						"node":24,
						"path":"scale"
					}
				},
				{
					"sampler":30,
					"target":{
						"node":23,
						"path":"translation"
					}
				},
				{
					"sampler":31,
					"target":{
						"node":23,
						"path":"rotation"
					}
				},
				{
					"sampler":32,
					"target":{
						"node":23,
						"path":"scale"
					}
				},
				{
					"sampler":33,
					"target":{
						"node":6,
						"path":"translation"
					}
				},
				{
					"sampler":34,
					"target":{
						"node":6,
						"path":"rotation"
					}
				},
				{
					"sampler":35,
					"target":{
						"node":6,
						"path":"scale"
					}
				},
				{
					"sampler":36,
					"target":{
						"node":5,
						"path":"translation"
					}
				},
				{
					"sampler":37,
					"target":{
						"node":5,
						"path":"rotation"
					}
				},
				{
					"sampler":38,
					"target":{
						"node":5,
						"path":"scale"
					}
				},
				{
					"sampler":39,
					"target":{
						"node":4,
						"path":"translation"
					}
				},
				{
					"sampler":40,
					"target":{
						"node":4,
						"path":"rotation"
					}
				},
				{
					"sampler":41,
					"target":{
						"node":4,
						"path":"scale"
					}
				},
				{
					"sampler":42,
					"target":{
						"node":3,
						"path":"translation"
					}
				},
				{
					"sampler":43,
					"target":{
						"node":3,
						"path":"rotation"
					}
				},
				{
					"sampler":44,
					"target":{
						"node":3,
						"path":"scale"
					}
				},
				{
					"sampler":45,
					"target":{
						"node":10,
						"path":"translation"
					}
				},
				{
					"sampler":46,
					"target":{
						"node":10,
						"path":"rotation"
					}
				},
				{
					"sampler":47,
					"target":{
						"node":10,
						"path":"scale"
					}
				},
				{
					"sampler":48,
					"target":{
						"node":9,
						"path":"translation"
					}
				},
				{
					"sampler":49,
					"target":{
						"node":9,
						"path":"rotation"
					}
				},
				{
					"sampler":50,
					"target":{
						"node":9,
						"path":"scale"
					}
				},
				{
					"sampler":51,
					"target":{
						"node":8,
						"path":"translation"
					}
				},
				{
					"sampler":52,
					"target":{
						"node":8,
						"path":"rotation"
					}
				},
				{
					"sampler":53,
					"target":{
						"node":8,
						"path":"scale"
					}
				},
				{
					"sampler":54,
					"target":{
						"node":7,
						"path":"translation"
					}
				},
				{
					"sampler":55,
					"target":{
						"node":7,
						"path":"rotation"
					}
				},
				{
					"sampler":56,
					"target":{
						"node":7,
						"path":"scale"
					}
				},
				{
					"sampler":57,
					"target":{
						"node":14,
						"path":"translation"
					}
				},
				{
					"sampler":58,
					"target":{
						"node":14,
						"path":"rotation"
					}
				},
				{
					"sampler":59,
					"target":{
						"node":14,
						"path":"scale"
					}
				},
				{
					"sampler":60,
					"target":{
						"node":13,
						"path":"translation"
					}
				},
				{
					"sampler":61,
					"target":{
						"node":13,
						"path":"rotation"
					}
				},
				{
					"sampler":62,
					"target":{
						"node":13,
						"path":"scale"
					}
				},
				{
					"sampler":63,
					"target":{
						"node":12,
						"path":"translation"
					}
				},
				{
					"sampler":64,
					"target":{
						"node":12,
						"path":"rotation"
					}
				},
				{
					"sampler":65,
					"target":{
						"node":12,
						"path":"scale"
					}
				},
				{
					"sampler":66,
					"target":{
						"node":11,
						"path":"translation"
					}
				},
				{
					"sampler":67,
					"target":{
						"node":11,
						"path":"rotation"
					}
				},
				{
					"sampler":68,
					"target":{
						"node":11,
						"path":"scale"
					}
				},
				{
					"sampler":69,
					"target":{
						"node":18,
						"path":"translation"
					}
				},
				{
					"sampler":70,
					"target":{
						"node":18,
						"path":"rotation"
					}
				},
				{
					"sampler":71,
					"target":{
						"node":18,
						"path":"scale"
					}
				},
				{
					"sampler":72,
					"target":{
						"node":17,
						"path":"translation"
					}
				},
				{
					"sampler":73,
					"target":{
						"node":17,
						"path":"rotation"
					}
				},
				{
					"sampler":74,
					"target":{
						"node":17,
						"path":"scale"
					}
				},
				{
					"sampler":75,
					"target":{
						"node":16,
						"path":"translation"
					}
				},
				{
					"sampler":76,
					"target":{
						"node":16,
						"path":"rotation"
					}
				},
				{
					"sampler":77,
					"target":{
						"node":16,
						"path":"scale"
					}
				},
				{
					"sampler":78,
					"target":{
						"node":15,
						"path":"translation"
					}
				},
				{
					"sampler":79,
					"target":{
						"node":15,
						"path":"rotation"
					}
				},
				{
					"sampler":80,
					"target":{
						"node":15,
						"path":"scale"
					}
				},
				{
					"sampler":81,
					"target":{
						"node":22,
						"path":"translation"
					}
				},
				{
					"sampler":82,
					"target":{
						"node":22,
						"path":"rotation"
					}
				},
				{
					"sampler":83,
					"target":{
						"node":22,
						"path":"scale"
					}
				},
				{
					"sampler":84,
					"target":{
						"node":21,
						"path":"translation"
					}
				},
				{
					"sampler":85,
					"target":{
						"node":21,
						"path":"rotation"
					}
				},
				{
					"sampler":86,
					"target":{
						"node":21,
						"path":"scale"
					}
				},
				{
					"sampler":87,
					"target":{
						"node":20,
						"path":"translation"
					}
				},
				{
					"sampler":88,
					"target":{
						"node":20,
						"path":"rotation"
					}
				},
				{
					"sampler":89,
					"target":{
						"node":20,
						"path":"scale"
					}
				},
				{
					"sampler":90,
					"target":{
						"node":19,
						"path":"translation"
					}
				},
				{
					"sampler":91,
					"target":{
						"node":19,
						"path":"rotation"
					}
				},
				{
					"sampler":92,
					"target":{
						"node":19,
						"path":"scale"
					}
				},
				{
					"sampler":93,
					"target":{
						"node":50,
						"path":"translation"
					}
				},
				{
					"sampler":94,
					"target":{
						"node":50,
						"path":"rotation"
					}
				},
				{
					"sampler":95,
					"target":{
						"node":50,
						"path":"scale"
					}
				},
				{
					"sampler":96,
					"target":{
						"node":49,
						"path":"translation"
					}
				},
				{
					"sampler":97,
					"target":{
						"node":49,
						"path":"rotation"
					}
				},
				{
					"sampler":98,
					"target":{
						"node":49,
						"path":"scale"
					}
				},
				{
					"sampler":99,
					"target":{
						"node":48,
						"path":"translation"
					}
				},
				{
					"sampler":100,
					"target":{
						"node":48,
						"path":"rotation"
					}
				},
				{
					"sampler":101,
					"target":{
						"node":48,
						"path":"scale"
					}
				},
				{
					"sampler":102,
					"target":{
						"node":47,
						"path":"translation"
					}
				},
				{
					"sampler":103,
					"target":{
						"node":47,
						"path":"rotation"
					}
				},
				{
					"sampler":104,
					"target":{
						"node":47,
						"path":"scale"
					}
				},
				{
					"sampler":105,
					"target":{
						"node":30,
						"path":"translation"
					}
				},
				{
					"sampler":106,
					"target":{
						"node":30,
						"path":"rotation"
					}
				},
				{
					"sampler":107,
					"target":{
						"node":30,
						"path":"scale"
					}
				},
				{
					"sampler":108,
					"target":{
						"node":29,
						"path":"translation"
					}
				},
				{
					"sampler":109,
					"target":{
						"node":29,
						"path":"rotation"
					}
				},
				{
					"sampler":110,
					"target":{
						"node":29,
						"path":"scale"
					}
				},
				{
					"sampler":111,
					"target":{
						"node":28,
						"path":"translation"
					}
				},
				{
					"sampler":112,
					"target":{
						"node":28,
						"path":"rotation"
					}
				},
				{
					"sampler":113,
					"target":{
						"node":28,
						"path":"scale"
					}
				},
				{
					"sampler":114,
					"target":{
						"node":27,
						"path":"translation"
					}
				},
				{
					"sampler":115,
					"target":{
						"node":27,
						"path":"rotation"
					}
				},
				{
					"sampler":116,
					"target":{
						"node":27,
						"path":"scale"
					}
				},
				{
					"sampler":117,
					"target":{
						"node":34,
						"path":"translation"
					}
				},
				{
					"sampler":118,
					"target":{
						"node":34,
						"path":"rotation"
					}
				},
				{
					"sampler":119,
					"target":{
						"node":34,
						"path":"scale"
					}
				},
				{
					"sampler":120,
					"target":{
						"node":33,
						"path":"translation"
					}
				},
				{
					"sampler":121,
					"target":{
						"node":33,
						"path":"rotation"
					}
				},
				{
					"sampler":122,
					"target":{
						"node":33,
						"path":"scale"
					}
				},
				{
					"sampler":123,
					"target":{
						"node":32,
						"path":"translation"
					}
				},
				{
					"sampler":124,
					"target":{
						"node":32,
						"path":"rotation"
					}
				},
				{
					"sampler":125,
					"target":{
						"node":32,
						"path":"scale"
					}
				},
				{
					"sampler":126,
					"target":{
						"node":31,
						"path":"translation"
					}
				},
				{
					"sampler":127,
					"target":{
						"node":31,
						"path":"rotation"
					}
				},
				{
					"sampler":128,
					"target":{
						"node":31,
						"path":"scale"
					}
				},
				{
					"sampler":129,
					"target":{
						"node":38,
						"path":"translation"
					}
				},
				{
					"sampler":130,
					"target":{
						"node":38,
						"path":"rotation"
					}
				},
				{
					"sampler":131,
					"target":{
						"node":38,
						"path":"scale"
					}
				},
				{
					"sampler":132,
					"target":{
						"node":37,
						"path":"translation"
					}
				},
				{
					"sampler":133,
					"target":{
						"node":37,
						"path":"rotation"
					}
				},
				{
					"sampler":134,
					"target":{
						"node":37,
						"path":"scale"
					}
				},
				{
					"sampler":135,
					"target":{
						"node":36,
						"path":"translation"
					}
				},
				{
					"sampler":136,
					"target":{
						"node":36,
						"path":"rotation"
					}
				},
				{
					"sampler":137,
					"target":{
						"node":36,
						"path":"scale"
					}
				},
				{
					"sampler":138,
					"target":{
						"node":35,
						"path":"translation"
					}
				},
				{
					"sampler":139,
					"target":{
						"node":35,
						"path":"rotation"
					}
				},
				{
					"sampler":140,
					"target":{
						"node":35,
						"path":"scale"
					}
				},
				{
					"sampler":141,
					"target":{
						"node":42,
						"path":"translation"
					}
				},
				{
					"sampler":142,
					"target":{
						"node":42,
						"path":"rotation"
					}
				},
				{
					"sampler":143,
					"target":{
						"node":42,
						"path":"scale"
					}
				},
				{
					"sampler":144,
					"target":{
						"node":41,
						"path":"translation"
					}
				},
				{
					"sampler":145,
					"target":{
						"node":41,
						"path":"rotation"
					}
				},
				{
					"sampler":146,
					"target":{
						"node":41,
						"path":"scale"
					}
				},
				{
					"sampler":147,
					"target":{
						"node":40,
						"path":"translation"
					}
				},
				{
					"sampler":148,
					"target":{
						"node":40,
						"path":"rotation"
					}
				},
				{
					"sampler":149,
					"target":{
						"node":40,
						"path":"scale"
					}
				},
				{
					"sampler":150,
					"target":{
						"node":39,
						"path":"translation"
					}
				},
				{
					"sampler":151,
					"target":{
						"node":39,
						"path":"rotation"
					}
				},
				{
					"sampler":152,
					"target":{
						"node":39,
						"path":"scale"
					}
				},
				{
					"sampler":153,
					"target":{
						"node":46,
						"path":"translation"
					}
				},
				{
					"sampler":154,
					"target":{
						"node":46,
						"path":"rotation"
					}
				},
				{
					"sampler":155,
					"target":{
						"node":46,
						"path":"scale"
					}
				},
				{
					"sampler":156,
					"target":{
						"node":45,
						"path":"translation"
					}
				},
				{
					"sampler":157,
					"target":{
						"node":45,
						"path":"rotation"
					}
				},
				{
					"sampler":158,
					"target":{
						"node":45,
						"path":"scale"
					}
				},
				{
					"sampler":159,
					"target":{
						"node":44,
						"path":"translation"
					}
				},
				{
					"sampler":160,
					"target":{
						"node":44,
						"path":"rotation"
					}
				},
				{
					"sampler":161,
					"target":{
						"node":44,
						"path":"scale"
					}
				},
				{
					"sampler":162,
					"target":{
						"node":43,
						"path":"translation"
					}
				},
				{
					"sampler":163,
					"target":{
						"node":43,
						"path":"rotation"
					}
				},
				{
					"sampler":164,
					"target":{
						"node":43,
						"path":"scale"
					}
				},
				{
					"sampler":165,
					"target":{
						"node":58,
						"path":"translation"
					}
				},
				{
					"sampler":166,
					"target":{
						"node":58,
						"path":"rotation"
					}
				},
				{
					"sampler":167,
					"target":{
						"node":58,
						"path":"scale"
					}
				},
				{
					"sampler":168,
					"target":{
						"node":57,
						"path":"translation"
					}
				},
				{
					"sampler":169,
					"target":{
						"node":57,
						"path":"rotation"
					}
				},
				{
					"sampler":170,
					"target":{
						"node":57,
						"path":"scale"
					}
				},
				{
					"sampler":171,
					"target":{
						"node":56,
						"path":"translation"
					}
				},
				{
					"sampler":172,
					"target":{
						"node":56,
						"path":"rotation"
					}
				},
				{
					"sampler":173,
					"target":{
						"node":56,
						"path":"scale"
					}
				},
				{
					"sampler":174,
					"target":{
						"node":55,
						"path":"translation"
					}
				},
				{
					"sampler":175,
					"target":{
						"node":55,
						"path":"rotation"
					}
				},
				{
					"sampler":176,
					"target":{
						"node":55,
						"path":"scale"
					}
				},
				{
					"sampler":177,
					"target":{
						"node":54,
						"path":"translation"
					}
				},
				{
					"sampler":178,
					"target":{
						"node":54,
						"path":"rotation"
					}
				},
				{
					"sampler":179,
					"target":{
						"node":54,
						"path":"scale"
					}
				},
				{
					"sampler":180,
					"target":{
						"node":63,
						"path":"translation"
					}
				},
				{
					"sampler":181,
					"target":{
						"node":63,
						"path":"rotation"
					}
				},
				{
					"sampler":182,
					"target":{
						"node":63,
						"path":"scale"
					}
				},
				{
					"sampler":183,
					"target":{
						"node":62,
						"path":"translation"
					}
				},
				{
					"sampler":184,
					"target":{
						"node":62,
						"path":"rotation"
					}
				},
				{
					"sampler":185,
					"target":{
						"node":62,
						"path":"scale"
					}
				},
				{
					"sampler":186,
					"target":{
						"node":61,
						"path":"translation"
					}
				},
				{
					"sampler":187,
					"target":{
						"node":61,
						"path":"rotation"
					}
				},
				{
					"sampler":188,
					"target":{
						"node":61,
						"path":"scale"
					}
				},
				{
					"sampler":189,
					"target":{
						"node":60,
						"path":"translation"
					}
				},
				{
					"sampler":190,
					"target":{
						"node":60,
						"path":"rotation"
					}
				},
				{
					"sampler":191,
					"target":{
						"node":60,
						"path":"scale"
					}
				},
				{
					"sampler":192,
					"target":{
						"node":59,
						"path":"translation"
					}
				},
				{
					"sampler":193,
					"target":{
						"node":59,
						"path":"rotation"
					}
				},
				{
					"sampler":194,
					"target":{
						"node":59,
						"path":"scale"
					}
				}
			],
			"name":"Armature|mixamo.com|Layer0",
			"samplers":[
				{
					"input":7,
					"interpolation":"LINEAR",
					"output":8
				},
				{
					"input":7,
					"interpolation":"LINEAR",
					"output":9
				},
				{
					"input":10,
					"interpolation":"STEP",
					"output":11
				},
				{
					"input":10,
					"interpolation":"LINEAR",
					"output":12
				},
				{
					"input":7,
					"interpolation":"LINEAR",
					"output":13
				},
				{
					"input":10,
					"interpolation":"LINEAR",
					"output":14
				},
				{
					"input":10,
					"interpolation":"LINEAR",
					"output":15
				},
				{
					"input":7,
					"interpolation":"LINEAR",
					"output":16
				},
				{
					"input":10,
					"interpolation":"LINEAR",
					"output":17
				},
				{
					"input":10,
					"interpolation":"LINEAR",
					"output":18
				},
				{
					"input":7,
					"interpolation":"LINEAR",
					"output":19
				},
				{
					"input":10,
					"interpolation":"LINEAR",
					"output":20
				},
				{
					"input":7,
					"interpolation":"LINEAR",
					"output":21
				},
				{
					"input":7,
					"interpolation":"LINEAR",
					"output":22
				},
				{
					"input":10,
					"interpolation":"LINEAR",
					"output":23
				},
				{
					"input":7,
					"interpolation":"LINEAR",
					"output":24
				},
				{
					"input":7,
					"interpolation":"LINEAR",
					"output":25
				},
				{
					"input":10,
					"interpolation":"LINEAR",
					"output":26
				},
				{
					"input":7,
					"interpolation":"LINEAR",
					"output":27
				},
				{
					"input":10,
					"interpolation":"STEP",
					"output":28
				},
				{
					"input":10,
					"interpolation":"STEP",
					"output":29
				},
				{
					"input":7,
					"interpolation":"LINEAR",
					"output":30
				},
				{
					"input":7,
					"interpolation":"LINEAR",
					"output":31
				},
				{
					"input":10,
					"interpolation":"STEP",
					"output":32
				},
				{
					"input":10,
					"interpolation":"LINEAR",
					"output":33
				},
				{
					"input":7,
					"interpolation":"LINEAR",
					"output":34
				},
				{
					"input":10,
					"interpolation":"LINEAR",
					"output":35
				},
				{
					"input":7,
					"interpolation":"LINEAR",
					"output":36
				},
				{
					"input":7,
					"interpolation":"LINEAR",
					"output":37
				},
				{
					"input":10,
					"interpolation":"STEP",
					"output":38
				},
				{
					"input":10,
					"interpolation":"LINEAR",
					"output":39
				},
				{
					"input":7,
					"interpolation":"LINEAR",
					"output":40
				},
				{
					"input":10,
					"interpolation":"STEP",
					"output":41
				},
				{
					"input":10,
					"interpolation":"LINEAR",
					"output":42
				},
				{
					"input":7,
					"interpolation":"LINEAR",
					"output":43
				},
				{
					"input":10,
					"interpolation":"LINEAR",
					"output":44
				},
				{
					"input":10,
					"interpolation":"LINEAR",
					"output":45
				},
				{
					"input":7,
					"interpolation":"LINEAR",
					"output":46
				},
				{
					"input":10,
					"interpolation":"LINEAR",
					"output":47
				},
				{
					"input":10,
					"interpolation":"LINEAR",
					"output":48
				},
				{
					"input":7,
					"interpolation":"LINEAR",
					"output":49
				},
				{
					"input":10,
					"interpolation":"LINEAR",
					"output":50
				},
				{
					"input":10,
					"interpolation":"STEP",
					"output":51
				},
				{
					"input":10,
					"interpolation":"STEP",
					"output":52
				},
				{
					"input":10,
					"interpolation":"STEP",
					"output":53
				},
				{
					"input":7,
					"interpolation":"LINEAR",
					"output":54
				},
				{
					"input":7,
					"interpolation":"LINEAR",
					"output":55
				},
				{
					"input":10,
					"interpolation":"LINEAR",
					"output":56
				},
				{
					"input":10,
					"interpolation":"LINEAR",
					"output":57
				},
				{
					"input":7,
					"interpolation":"LINEAR",
					"output":58
				},
				{
					"input":10,
					"interpolation":"LINEAR",
					"output":59
				},
				{
					"input":7,
					"interpolation":"LINEAR",
					"output":60
				},
				{
					"input":7,
					"interpolation":"LINEAR",
					"output":61
				},
				{
					"input":10,
					"interpolation":"STEP",
					"output":62
				},
				{
					"input":7,
					"interpolation":"LINEAR",
					"output":63
				},
				{
					"input":10,
					"interpolation":"STEP",
					"output":64
				},
				{
					"input":10,
					"interpolation":"STEP",
					"output":65
				},
				{
					"input":10,
					"interpolation":"LINEAR",
					"output":66
				},
				{
					"input":7,
					"interpolation":"LINEAR",
					"output":67
				},
				{
					"input":10,
					"interpolation":"LINEAR",
					"output":68
				},
				{
					"input":7,
					"interpolation":"LINEAR",
					"output":69
				},
				{
					"input":7,
					"interpolation":"LINEAR",
					"output":70
				},
				{
					"input":10,
					"interpolation":"STEP",
					"output":71
				},
				{
					"input":7,
					"interpolation":"LINEAR",
					"output":72
				},
				{
					"input":7,
					"interpolation":"LINEAR",
					"output":73
				},
				{
					"input":10,
					"interpolation":"LINEAR",
					"output":74
				},
				{
					"input":10,
					"interpolation":"STEP",
					"output":75
				},
				{
					"input":10,
					"interpolation":"STEP",
					"output":76
				},
				{
					"input":10,
					"interpolation":"STEP",
					"output":77
				},
				{
					"input":10,
					"interpolation":"LINEAR",
					"output":78
				},
				{
					"input":7,
					"interpolation":"LINEAR",
					"output":79
				},
				{
					"input":10,
					"interpolation":"LINEAR",
					"output":80
				},
				{
					"input":10,
					"interpolation":"LINEAR",
					"output":81
				},
				{
					"input":7,
					"interpolation":"LINEAR",
					"output":82
				},
				{
					"input":10,
					"interpolation":"LINEAR",
					"output":83
				},
				{
					"input":10,
					"interpolation":"LINEAR",
					"output":84
				},
				{
					"input":7,
					"interpolation":"LINEAR",
					"output":85
				},
				{
					"input":10,
					"interpolation":"LINEAR",
					"output":86
				},
				{
					"input":10,
					"interpolation":"STEP",
					"output":87
				},
				{
					"input":10,
					"interpolation":"STEP",
					"output":88
				},
				{
					"input":10,
					"interpolation":"STEP",
					"output":89
				},
				{
					"input":10,
					"interpolation":"LINEAR",
					"output":90
				},
				{
					"input":7,
					"interpolation":"LINEAR",
					"output":91
				},
				{
					"input":10,
					"interpolation":"LINEAR",
					"output":92
				},
				{
					"input":7,
					"interpolation":"LINEAR",
					"output":93
				},
				{
					"input":7,
					"interpolation":"LINEAR",
					"output":94
				},
				{
					"input":10,
					"interpolation":"LINEAR",
					"output":95
				},
				{
					"input":10,
					"interpolation":"LINEAR",
					"output":96
				},
				{
					"input":7,
					"interpolation":"LINEAR",
					"output":97
				},
				{
					"input":10,
					"interpolation":"LINEAR",
					"output":98
				},
				{
					"input":7,
					"interpolation":"LINEAR",
					"output":99
				},
				{
					"input":10,
					"interpolation":"STEP",
					"output":100
				},
				{
					"input":10,
					"interpolation":"STEP",
					"output":101
				},
				{
					"input":10,
					"interpolation":"LINEAR",
					"output":102
				},
				{
					"input":7,
					"interpolation":"LINEAR",
					"output":103
				},
				{
					"input":10,
					"interpolation":"LINEAR",
					"output":104
				},
				{
					"input":7,
					"interpolation":"LINEAR",
					"output":105
				},
				{
					"input":7,
					"interpolation":"LINEAR",
					"output":106
				},
				{
					"input":10,
					"interpolation":"LINEAR",
					"output":107
				},
				{
					"input":7,
					"interpolation":"LINEAR",
					"output":108
				},
				{
					"input":7,
					"interpolation":"LINEAR",
					"output":109
				},
				{
					"input":10,
					"interpolation":"STEP",
					"output":110
				},
				{
					"input":10,
					"interpolation":"LINEAR",
					"output":111
				},
				{
					"input":7,
					"interpolation":"LINEAR",
					"output":112
				},
				{
					"input":10,
					"interpolation":"LINEAR",
					"output":113
				},
				{
					"input":7,
					"interpolation":"LINEAR",
					"output":114
				},
				{
					"input":7,
					"interpolation":"LINEAR",
					"output":115
				},
				{
					"input":10,
					"interpolation":"LINEAR",
					"output":116
				},
				{
					"input":7,
					"interpolation":"LINEAR",
					"output":117
				},
				{
					"input":7,
					"interpolation":"LINEAR",
					"output":118
				},
				{
					"input":10,
					"interpolation":"LINEAR",
					"output":119
				},
				{
					"input":10,
					"interpolation":"LINEAR",
					"output":120
				},
				{
					"input":7,
					"interpolation":"LINEAR",
					"output":121
				},
				{
					"input":10,
					"interpolation":"LINEAR",
					"output":122
				},
				{
					"input":10,
					"interpolation":"STEP",
					"output":123
				},
				{
					"input":10,
					"interpolation":"STEP",
					"output":124
				},
				{
					"input":10,
					"interpolation":"STEP",
					"output":125
				},
				{
					"input":10,
					"interpolation":"LINEAR",
					"output":126
				},
				{
					"input":7,
					"interpolation":"LINEAR",
					"output":127
				},
				{
					"input":10,
					"interpolation":"LINEAR",
					"output":128
				},
				{
					"input":7,
					"interpolation":"LINEAR",
					"output":129
				},
				{
					"input":7,
					"interpolation":"LINEAR",
					"output":130
				},
				{
					"input":10,
					"interpolation":"STEP",
					"output":131
				},
				{
					"input":7,
					"interpolation":"LINEAR",
					"output":132
				},
				{
					"input":7,
					"interpolation":"LINEAR",
					"output":133
				},
				{
					"input":10,
					"interpolation":"LINEAR",
					"output":134
				},
				{
					"input":10,
					"interpolation":"STEP",
					"output":135
				},
				{
					"input":10,
					"interpolation":"STEP",
					"output":136
				},
				{
					"input":10,
					"interpolation":"STEP",
					"output":137
				},
				{
					"input":10,
					"interpolation":"LINEAR",
					"output":138
				},
				{
					"input":7,
					"interpolation":"LINEAR",
					"output":139
				},
				{
					"input":10,
					"interpolation":"LINEAR",
					"output":140
				},
				{
					"input":7,
					"interpolation":"LINEAR",
					"output":141
				},
				{
					"input":7,
					"interpolation":"LINEAR",
					"output":142
				},
				{
					"input":10,
					"interpolation":"STEP",
					"output":143
				},
				{
					"input":10,
					"interpolation":"LINEAR",
					"output":144
				},
				{
					"input":7,
					"interpolation":"LINEAR",
					"output":145
				},
				{
					"input":10,
					"interpolation":"LINEAR",
					"output":146
				},
				{
					"input":10,
					"interpolation":"STEP",
					"output":147
				},
				{
					"input":10,
					"interpolation":"STEP",
					"output":148
				},
				{
					"input":10,
					"interpolation":"STEP",
					"output":149
				},
				{
					"input":10,
					"interpolation":"LINEAR",
					"output":150
				},
				{
					"input":7,
					"interpolation":"LINEAR",
					"output":151
				},
				{
					"input":10,
					"interpolation":"LINEAR",
					"output":152
				},
				{
					"input":7,
					"interpolation":"LINEAR",
					"output":153
				},
				{
					"input":7,
					"interpolation":"LINEAR",
					"output":154
				},
				{
					"input":10,
					"interpolation":"LINEAR",
					"output":155
				},
				{
					"input":10,
					"interpolation":"LINEAR",
					"output":156
				},
				{
					"input":7,
					"interpolation":"LINEAR",
					"output":157
				},
				{
					"input":10,
					"interpolation":"LINEAR",
					"output":158
				},
				{
					"input":10,
					"interpolation":"STEP",
					"output":159
				},
				{
					"input":10,
					"interpolation":"STEP",
					"output":160
				},
				{
					"input":10,
					"interpolation":"STEP",
					"output":161
				},
				{
					"input":10,
					"interpolation":"LINEAR",
					"output":162
				},
				{
					"input":7,
					"interpolation":"LINEAR",
					"output":163
				},
				{
					"input":10,
					"interpolation":"STEP",
					"output":164
				},
				{
					"input":10,
					"interpolation":"LINEAR",
					"output":165
				},
				{
					"input":7,
					"interpolation":"LINEAR",
					"output":166
				},
				{
					"input":10,
					"interpolation":"LINEAR",
					"output":167
				},
				{
					"input":10,
					"interpolation":"LINEAR",
					"output":168
				},
				{
					"input":7,
					"interpolation":"LINEAR",
					"output":169
				},
				{
					"input":10,
					"interpolation":"LINEAR",
					"output":170
				},
				{
					"input":10,
					"interpolation":"STEP",
					"output":171
				},
				{
					"input":10,
					"interpolation":"STEP",
					"output":172
				},
				{
					"input":10,
					"interpolation":"STEP",
					"output":173
				},
				{
					"input":10,
					"interpolation":"LINEAR",
					"output":174
				},
				{
					"input":7,
					"interpolation":"LINEAR",
					"output":175
				},
				{
					"input":10,
					"interpolation":"STEP",
					"output":176
				},
				{
					"input":10,
					"interpolation":"LINEAR",
					"output":177
				},
				{
					"input":7,
					"interpolation":"LINEAR",
					"output":178
				},
				{
					"input":10,
					"interpolation":"LINEAR",
					"output":179
				},
				{
					"input":10,
					"interpolation":"LINEAR",
					"output":180
				},
				{
					"input":7,
					"interpolation":"LINEAR",
					"output":181
				},
				{
					"input":10,
					"interpolation":"LINEAR",
					"output":182
				},
				{
					"input":10,
					"interpolation":"LINEAR",
					"output":183
				},
				{
					"input":7,
					"interpolation":"LINEAR",
					"output":184
				},
				{
					"input":10,
					"interpolation":"STEP",
					"output":185
				},
				{
					"input":10,
					"interpolation":"STEP",
					"output":186
				},
				{
					"input":10,
					"interpolation":"STEP",
					"output":187
				},
				{
					"input":10,
					"interpolation":"STEP",
					"output":188
				},
				{
					"input":10,
					"interpolation":"LINEAR",
					"output":189
				},
				{
					"input":7,
					"interpolation":"LINEAR",
					"output":190
				},
				{
					"input":10,
					"interpolation":"LINEAR",
					"output":191
				},
				{
					"input":10,
					"interpolation":"LINEAR",
					"output":192
				},
				{
					"input":7,
					"interpolation":"LINEAR",
					"output":193
				},
				{
					"input":10,
					"interpolation":"LINEAR",
					"output":194
				},
				{
					"input":10,
					"interpolation":"LINEAR",
					"output":195
				},
				{
					"input":7,
					"interpolation":"LINEAR",
					"output":196
				},
				{
					"input":10,
					"interpolation":"LINEAR",
					"output":197
				},
				{
					"input":10,
					"interpolation":"LINEAR",
					"output":198
				},
				{
					"input":7,
					"interpolation":"LINEAR",
					"output":199
				},
				{
					"input":10,
					"interpolation":"STEP",
					"output":200
				},
				{
					"input":10,
					"interpolation":"STEP",
					"output":201
				},
				{
					"input":10,
					"interpolation":"STEP",
					"output":202
				},
				{
					"input":10,
					"interpolation":"STEP",
					"output":203
				}
			]
		}
	],
	"materials":[
		{
			"doubleSided":true,
			"name":"ShroomBoi",
			"pbrMetallicRoughness":{
				"baseColorTexture":{
					"index":0
				},
				"metallicFactor":0
			}
		}
	],
	"meshes":[
		{
			"name":"Cube.001",
			"primitives":[
				{
					"attributes":{
						"POSITION":0,
						"NORMAL":1,
						"TEXCOORD_0":2,
						"JOINTS_0":3,
						"WEIGHTS_0":4
					},
					"indices":5,
					"material":0
				}
			]
		}
	],
	"textures":[
		{
			"sampler":0,
			"source":0
		}
	],
	"images":[
		{
			"mimeType":"image/png",
			"name":"shroomboi1_DefaultMaterial_BaseColor.1001",
			"uri":"Texture/shroomboi1_DefaultMaterial_BaseColor_1001.png"
		}
	],
	"skins":[
		{
			"inverseBindMatrices":6,
			"joints":[
				64,
				53,
				52,
				51,
				2,
				1,
				0,
				26,
				25,
				24,
				23,
				6,
				5,
				4,
				3,
				10,
				9,
				8,
				7,
				14,
				13,
				12,
				11,
				18,
				17,
				16,
				15,
				22,
				21,
				20,
				19,
				50,
				49,
				48,
				47,
				30,
				29,
				28,
				27,
				34,
				33,
				32,
				31,
				38,
				37,
				36,
				35,
				42,
				41,
				40,
				39,
				46,
				45,
				44,
				43,
				58,
				57,
				56,
				55,
				54,
				63,
				62,
				61,
				60,
				59
			],
			"name":"Armature"
		}
	],
	"accessors":[
		{
			"bufferView":0,
			"componentType":5126,
			"count":2805,
			"max":[
				1.2401202917099,
				5.157544136047363,
				2.5944509506225586
			],
			"min":[
				-1.317323088645935,
				9.214641067956109e-07,
				-2.5944509506225586
			],
			"type":"VEC3"
		},
		{
			"bufferView":1,
			"componentType":5126,
			"count":2805,
			"type":"VEC3"
		},
		{
			"bufferView":2,
			"componentType":5126,
			"count":2805,
			"type":"VEC2"
		},
		{
			"bufferView":3,
			"componentType":5121,
			"count":2805,
			"type":"VEC4"
		},
		{
			"bufferView":4,
			"componentType":5126,
			"count":2805,
			"type":"VEC4"
		},
		{
			"bufferView":5,
			"componentType":5123,
			"count":14190,
			"type":"SCALAR"
		},
		{
			"bufferView":6,
			"componentType":5126,
			"count":65,
			"type":"MAT4"
		},
		{
			"bufferView":7,
			"componentType":5126,
			"count":85,
			"max":[
				2.8333333333333335
			],
			"min":[
				0.03333333333333333
			],
			"type":"SCALAR"
		},
		{
			"bufferView":8,
			"componentType":5126,
			"count":85,
			"type":"VEC3"
		},
		{
			"bufferView":9,
			"componentType":5126,
			"count":85,
			"type":"VEC4"
		},
		{
			"bufferView":10,
			"componentType":5126,
			"count":2,
			"max":[
				2.8333333333333335
			],
			"min":[
				0.03333333333333333
			],
			"type":"SCALAR"
		},
		{
			"bufferView":11,
			"componentType":5126,
			"count":2,
			"type":"VEC3"
		},
		{
			"bufferView":12,
			"componentType":5126,
			"count":2,
			"type":"VEC3"
		},
		{
			"bufferView":13,
			"componentType":5126,
			"count":85,
			"type":"VEC4"
		},
		{
			"bufferView":14,
			"componentType":5126,
			"count":2,
			"type":"VEC3"
		},
		{
			"bufferView":15,
			"componentType":5126,
			"count":2,
			"type":"VEC3"
		},
		{
			"bufferView":16,
			"componentType":5126,
			"count":85,
			"type":"VEC4"
		},
		{
			"bufferView":17,
			"componentType":5126,
			"count":2,
			"type":"VEC3"
		},
		{
			"bufferView":18,
			"componentType":5126,
			"count":2,
			"type":"VEC3"
		},
		{
			"bufferView":19,
			"componentType":5126,
			"count":85,
			"type":"VEC4"
		},
		{
			"bufferView":20,
			"componentType":5126,
			"count":2,
			"type":"VEC3"
		},
		{
			"bufferView":21,
			"componentType":5126,
			"count":85,
			"type":"VEC3"
		},
		{
			"bufferView":22,
			"componentType":5126,
			"count":85,
			"type":"VEC4"
		},
		{
			"bufferView":23,
			"componentType":5126,
			"count":2,
			"type":"VEC3"
		},
		{
			"bufferView":24,
			"componentType":5126,
			"count":85,
			"type":"VEC3"
		},
		{
			"bufferView":25,
			"componentType":5126,
			"count":85,
			"type":"VEC4"
		},
		{
			"bufferView":26,
			"componentType":5126,
			"count":2,
			"type":"VEC3"
		},
		{
			"bufferView":27,
			"componentType":5126,
			"count":85,
			"type":"VEC3"
		},
		{
			"bufferView":28,
			"componentType":5126,
			"count":2,
			"type":"VEC4"
		},
		{
			"bufferView":29,
			"componentType":5126,
			"count":2,
			"type":"VEC3"
		},
		{
			"bufferView":30,
			"componentType":5126,
			"count":85,
			"type":"VEC3"
		},
		{
			"bufferView":31,
			"componentType":5126,
			"count":85,
			"type":"VEC4"
		},
		{
			"bufferView":32,
			"componentType":5126,
			"count":2,
			"type":"VEC3"
		},
		{
			"bufferView":33,
			"componentType":5126,
			"count":2,
			"type":"VEC3"
		},
		{
			"bufferView":34,
			"componentType":5126,
			"count":85,
			"type":"VEC4"
		},
		{
			"bufferView":35,
			"componentType":5126,
			"count":2,
			"type":"VEC3"
		},
		{
			"bufferView":36,
			"componentType":5126,
			"count":85,
			"type":"VEC3"
		},
		{
			"bufferView":37,
			"componentType":5126,
			"count":85,
			"type":"VEC4"
		},
		{
			"bufferView":38,
			"componentType":5126,
			"count":2,
			"type":"VEC3"
		},
		{
			"bufferView":39,
			"componentType":5126,
			"count":2,
			"type":"VEC3"
		},
		{
			"bufferView":40,
			"componentType":5126,
			"count":85,
			"type":"VEC4"
		},
		{
			"bufferView":41,
			"componentType":5126,
			"count":2,
			"type":"VEC3"
		},
		{
			"bufferView":42,
			"componentType":5126,
			"count":2,
			"type":"VEC3"
		},
		{
			"bufferView":43,
			"componentType":5126,
			"count":85,
			"type":"VEC4"
		},
		{
			"bufferView":44,
			"componentType":5126,
			"count":2,
			"type":"VEC3"
		},
		{
			"bufferView":45,
			"componentType":5126,
			"count":2,
			"type":"VEC3"
		},
		{
			"bufferView":46,
			"componentType":5126,
			"count":85,
			"type":"VEC4"
		},
		{
			"bufferView":47,
			"componentType":5126,
			"count":2,
			"type":"VEC3"
		},
		{
			"bufferView":48,
			"componentType":5126,
			"count":2,
			"type":"VEC3"
		},
		{
			"bufferView":49,
			"componentType":5126,
			"count":85,
			"type":"VEC4"
		},
		{
			"bufferView":50,
			"componentType":5126,
			"count":2,
			"type":"VEC3"
		},
		{
			"bufferView":51,
			"componentType":5126,
			"count":2,
			"type":"VEC3"
		},
		{
			"bufferView":52,
			"componentType":5126,
			"count":2,
			"type":"VEC4"
		},
		{
			"bufferView":53,
			"componentType":5126,
			"count":2,
			"type":"VEC3"
		},
		{
			"bufferView":54,
			"componentType":5126,
			"count":85,
			"type":"VEC3"
		},
		{
			"bufferView":55,
			"componentType":5126,
			"count":85,
			"type":"VEC4"
		},
		{
			"bufferView":56,
			"componentType":5126,
			"count":2,
			"type":"VEC3"
		},
		{
			"bufferView":57,
			"componentType":5126,
			"count":2,
			"type":"VEC3"
		},
		{
			"bufferView":58,
			"componentType":5126,
			"count":85,
			"type":"VEC4"
		},
		{
			"bufferView":59,
			"componentType":5126,
			"count":2,
			"type":"VEC3"
		},
		{
			"bufferView":60,
			"componentType":5126,
			"count":85,
			"type":"VEC3"
		},
		{
			"bufferView":61,
			"componentType":5126,
			"count":85,
			"type":"VEC4"
		},
		{
			"bufferView":62,
			"componentType":5126,
			"count":2,
			"type":"VEC3"
		},
		{
			"bufferView":63,
			"componentType":5126,
			"count":85,
			"type":"VEC3"
		},
		{
			"bufferView":64,
			"componentType":5126,
			"count":2,
			"type":"VEC4"
		},
		{
			"bufferView":65,
			"componentType":5126,
			"count":2,
			"type":"VEC3"
		},
		{
			"bufferView":66,
			"componentType":5126,
			"count":2,
			"type":"VEC3"
		},
		{
			"bufferView":67,
			"componentType":5126,
			"count":85,
			"type":"VEC4"
		},
		{
			"bufferView":68,
			"componentType":5126,
			"count":2,
			"type":"VEC3"
		},
		{
			"bufferView":69,
			"componentType":5126,
			"count":85,
			"type":"VEC3"
		},
		{
			"bufferView":70,
			"componentType":5126,
			"count":85,
			"type":"VEC4"
		},
		{
			"bufferView":71,
			"componentType":5126,
			"count":2,
			"type":"VEC3"
		},
		{
			"bufferView":72,
			"componentType":5126,
			"count":85,
			"type":"VEC3"
		},
		{
			"bufferView":73,
			"componentType":5126,
			"count":85,
			"type":"VEC4"
		},
		{
			"bufferView":74,
			"componentType":5126,
			"count":2,
			"type":"VEC3"
		},
		{
			"bufferView":75,
			"componentType":5126,
			"count":2,
			"type":"VEC3"
		},
		{
			"bufferView":76,
			"componentType":5126,
			"count":2,
			"type":"VEC4"
		},
		{
			"bufferView":77,
			"componentType":5126,
			"count":2,
			"type":"VEC3"
		},
		{
			"bufferView":78,
			"componentType":5126,
			"count":2,
			"type":"VEC3"
		},
		{
			"bufferView":79,
			"componentType":5126,
			"count":85,
			"type":"VEC4"
		},
		{
			"bufferView":80,
			"componentType":5126,
			"count":2,
			"type":"VEC3"
		},
		{
			"bufferView":81,
			"componentType":5126,
			"count":2,
			"type":"VEC3"
		},
		{
			"bufferView":82,
			"componentType":5126,
			"count":85,
			"type":"VEC4"
		},
		{
			"bufferView":83,
			"componentType":5126,
			"count":2,
			"type":"VEC3"
		},
		{
			"bufferView":84,
			"componentType":5126,
			"count":2,
			"type":"VEC3"
		},
		{
			"bufferView":85,
			"componentType":5126,
			"count":85,
			"type":"VEC4"
		},
		{
			"bufferView":86,
			"componentType":5126,
			"count":2,
			"type":"VEC3"
		},
		{
			"bufferView":87,
			"componentType":5126,
			"count":2,
			"type":"VEC3"
		},
		{
			"bufferView":88,
			"componentType":5126,
			"count":2,
			"type":"VEC4"
		},
		{
			"bufferView":89,
			"componentType":5126,
			"count":2,
			"type":"VEC3"
		},
		{
			"bufferView":90,
			"componentType":5126,
			"count":2,
			"type":"VEC3"
		},
		{
			"bufferView":91,
			"componentType":5126,
			"count":85,
			"type":"VEC4"
		},
		{
			"bufferView":92,
			"componentType":5126,
			"count":2,
			"type":"VEC3"
		},
		{
			"bufferView":93,
			"componentType":5126,
			"count":85,
			"type":"VEC3"
		},
		{
			"bufferView":94,
			"componentType":5126,
			"count":85,
			"type":"VEC4"
		},
		{
			"bufferView":95,
			"componentType":5126,
			"count":2,
			"type":"VEC3"
		},
		{
			"bufferView":96,
			"componentType":5126,
			"count":2,
			"type":"VEC3"
		},
		{
			"bufferView":97,
			"componentType":5126,
			"count":85,
			"type":"VEC4"
		},
		{
			"bufferView":98,
			"componentType":5126,
			"count":2,
			"type":"VEC3"
		},
		{
			"bufferView":99,
			"componentType":5126,
			"count":85,
			"type":"VEC3"
		},
		{
			"bufferView":100,
			"componentType":5126,
			"count":2,
			"type":"VEC4"
		},
		{
			"bufferView":101,
			"componentType":5126,
			"count":2,
			"type":"VEC3"
		},
		{
			"bufferView":102,
			"componentType":5126,
			"count":2,
			"type":"VEC3"
		},
		{
			"bufferView":103,
			"componentType":5126,
			"count":85,
			"type":"VEC4"
		},
		{
			"bufferView":104,
			"componentType":5126,
			"count":2,
			"type":"VEC3"
		},
		{
			"bufferView":105,
			"componentType":5126,
			"count":85,
			"type":"VEC3"
		},
		{
			"bufferView":106,
			"componentType":5126,
			"count":85,
			"type":"VEC4"
		},
		{
			"bufferView":107,
			"componentType":5126,
			"count":2,
			"type":"VEC3"
		},
		{
			"bufferView":108,
			"componentType":5126,
			"count":85,
			"type":"VEC3"
		},
		{
			"bufferView":109,
			"componentType":5126,
			"count":85,
			"type":"VEC4"
		},
		{
			"bufferView":110,
			"componentType":5126,
			"count":2,
			"type":"VEC3"
		},
		{
			"bufferView":111,
			"componentType":5126,
			"count":2,
			"type":"VEC3"
		},
		{
			"bufferView":112,
			"componentType":5126,
			"count":85,
			"type":"VEC4"
		},
		{
			"bufferView":113,
			"componentType":5126,
			"count":2,
			"type":"VEC3"
		},
		{
			"bufferView":114,
			"componentType":5126,
			"count":85,
			"type":"VEC3"
		},
		{
			"bufferView":115,
			"componentType":5126,
			"count":85,
			"type":"VEC4"
		},
		{
			"bufferView":116,
			"componentType":5126,
			"count":2,
			"type":"VEC3"
		},
		{
			"bufferView":117,
			"componentType":5126,
			"count":85,
			"type":"VEC3"
		},
		{
			"bufferView":118,
			"componentType":5126,
			"count":85,
			"type":"VEC4"
		},
		{
			"bufferView":119,
			"componentType":5126,
			"count":2,
			"type":"VEC3"
		},
		{
			"bufferView":120,
			"componentType":5126,
			"count":2,
			"type":"VEC3"
		},
		{
			"bufferView":121,
			"componentType":5126,
			"count":85,
			"type":"VEC4"
		},
		{
			"bufferView":122,
			"componentType":5126,
			"count":2,
			"type":"VEC3"
		},
		{
			"bufferView":123,
			"componentType":5126,
			"count":2,
			"type":"VEC3"
		},
		{
			"bufferView":124,
			"componentType":5126,
			"count":2,
			"type":"VEC4"
		},
		{
			"bufferView":125,
			"componentType":5126,
			"count":2,
			"type":"VEC3"
		},
		{
			"bufferView":126,
			"componentType":5126,
			"count":2,
			"type":"VEC3"
		},
		{
			"bufferView":127,
			"componentType":5126,
			"count":85,
			"type":"VEC4"
		},
		{
			"bufferView":128,
			"componentType":5126,
			"count":2,
			"type":"VEC3"
		},
		{
			"bufferView":129,
			"componentType":5126,
			"count":85,
			"type":"VEC3"
		},
		{
			"bufferView":130,
			"componentType":5126,
			"count":85,
			"type":"VEC4"
		},
		{
			"bufferView":131,
			"componentType":5126,
			"count":2,
			"type":"VEC3"
		},
		{
			"bufferView":132,
			"componentType":5126,
			"count":85,
			"type":"VEC3"
		},
		{
			"bufferView":133,
			"componentType":5126,
			"count":85,
			"type":"VEC4"
		},
		{
			"bufferView":134,
			"componentType":5126,
			"count":2,
			"type":"VEC3"
		},
		{
			"bufferView":135,
			"componentType":5126,
			"count":2,
			"type":"VEC3"
		},
		{
			"bufferView":136,
			"componentType":5126,
			"count":2,
			"type":"VEC4"
		},
		{
			"bufferView":137,
			"componentType":5126,
			"count":2,
			"type":"VEC3"
		},
		{
			"bufferView":138,
			"componentType":5126,
			"count":2,
			"type":"VEC3"
		},
		{
			"bufferView":139,
			"componentType":5126,
			"count":85,
			"type":"VEC4"
		},
		{
			"bufferView":140,
			"componentType":5126,
			"count":2,
			"type":"VEC3"
		},
		{
			"bufferView":141,
			"componentType":5126,
			"count":85,
			"type":"VEC3"
		},
		{
			"bufferView":142,
			"componentType":5126,
			"count":85,
			"type":"VEC4"
		},
		{
			"bufferView":143,
			"componentType":5126,
			"count":2,
			"type":"VEC3"
		},
		{
			"bufferView":144,
			"componentType":5126,
			"count":2,
			"type":"VEC3"
		},
		{
			"bufferView":145,
			"componentType":5126,
			"count":85,
			"type":"VEC4"
		},
		{
			"bufferView":146,
			"componentType":5126,
			"count":2,
			"type":"VEC3"
		},
		{
			"bufferView":147,
			"componentType":5126,
			"count":2,
			"type":"VEC3"
		},
		{
			"bufferView":148,
			"componentType":5126,
			"count":2,
			"type":"VEC4"
		},
		{
			"bufferView":149,
			"componentType":5126,
			"count":2,
			"type":"VEC3"
		},
		{
			"bufferView":150,
			"componentType":5126,
			"count":2,
			"type":"VEC3"
		},
		{
			"bufferView":151,
			"componentType":5126,
			"count":85,
			"type":"VEC4"
		},
		{
			"bufferView":152,
			"componentType":5126,
			"count":2,
			"type":"VEC3"
		},
		{
			"bufferView":153,
			"componentType":5126,
			"count":85,
			"type":"VEC3"
		},
		{
			"bufferView":154,
			"componentType":5126,
			"count":85,
			"type":"VEC4"
		},
		{
			"bufferView":155,
			"componentType":5126,
			"count":2,
			"type":"VEC3"
		},
		{
			"bufferView":156,
			"componentType":5126,
			"count":2,
			"type":"VEC3"
		},
		{
			"bufferView":157,
			"componentType":5126,
			"count":85,
			"type":"VEC4"
		},
		{
			"bufferView":158,
			"componentType":5126,
			"count":2,
			"type":"VEC3"
		},
		{
			"bufferView":159,
			"componentType":5126,
			"count":2,
			"type":"VEC3"
		},
		{
			"bufferView":160,
			"componentType":5126,
			"count":2,
			"type":"VEC4"
		},
		{
			"bufferView":161,
			"componentType":5126,
			"count":2,
			"type":"VEC3"
		},
		{
			"bufferView":162,
			"componentType":5126,
			"count":2,
			"type":"VEC3"
		},
		{
			"bufferView":163,
			"componentType":5126,
			"count":85,
			"type":"VEC4"
		},
		{
			"bufferView":164,
			"componentType":5126,
			"count":2,
			"type":"VEC3"
		},
		{
			"bufferView":165,
			"componentType":5126,
			"count":2,
			"type":"VEC3"
		},
		{
			"bufferView":166,
			"componentType":5126,
			"count":85,
			"type":"VEC4"
		},
		{
			"bufferView":167,
			"componentType":5126,
			"count":2,
			"type":"VEC3"
		},
		{
			"bufferView":168,
			"componentType":5126,
			"count":2,
			"type":"VEC3"
		},
		{
			"bufferView":169,
			"componentType":5126,
			"count":85,
			"type":"VEC4"
		},
		{
			"bufferView":170,
			"componentType":5126,
			"count":2,
			"type":"VEC3"
		},
		{
			"bufferView":171,
			"componentType":5126,
			"count":2,
			"type":"VEC3"
		},
		{
			"bufferView":172,
			"componentType":5126,
			"count":2,
			"type":"VEC4"
		},
		{
			"bufferView":173,
			"componentType":5126,
			"count":2,
			"type":"VEC3"
		},
		{
			"bufferView":174,
			"componentType":5126,
			"count":2,
			"type":"VEC3"
		},
		{
			"bufferView":175,
			"componentType":5126,
			"count":85,
			"type":"VEC4"
		},
		{
			"bufferView":176,
			"componentType":5126,
			"count":2,
			"type":"VEC3"
		},
		{
			"bufferView":177,
			"componentType":5126,
			"count":2,
			"type":"VEC3"
		},
		{
			"bufferView":178,
			"componentType":5126,
			"count":85,
			"type":"VEC4"
		},
		{
			"bufferView":179,
			"componentType":5126,
			"count":2,
			"type":"VEC3"
		},
		{
			"bufferView":180,
			"componentType":5126,
			"count":2,
			"type":"VEC3"
		},
		{
			"bufferView":181,
			"componentType":5126,
			"count":85,
			"type":"VEC4"
		},
		{
			"bufferView":182,
			"componentType":5126,
			"count":2,
			"type":"VEC3"
		},
		{
			"bufferView":183,
			"componentType":5126,
			"count":2,
			"type":"VEC3"
		},
		{
			"bufferView":184,
			"componentType":5126,
			"count":85,
			"type":"VEC4"
		},
		{
			"bufferView":185,
			"componentType":5126,
			"count":2,
			"type":"VEC3"
		},
		{
			"bufferView":186,
			"componentType":5126,
			"count":2,
			"type":"VEC3"
		},
		{
			"bufferView":187,
			"componentType":5126,
			"count":2,
			"type":"VEC4"
		},
		{
			"bufferView":188,
			"componentType":5126,
			"count":2,
			"type":"VEC3"
		},
		{
			"bufferView":189,
			"componentType":5126,
			"count":2,
			"type":"VEC3"
		},
		{
			"bufferView":190,
			"componentType":5126,
			"count":85,
			"type":"VEC4"
		},
		{
			"bufferView":191,
			"componentType":5126,
			"count":2,
			"type":"VEC3"
		},
		{
			"bufferView":192,
			"componentType":5126,
			"count":2,
			"type":"VEC3"
		},
		{
			"bufferView":193,
			"componentType":5126,
			"count":85,
			"type":"VEC4"
		},
		{
			"bufferView":194,
			"componentType":5126,
			"count":2,
			"type":"VEC3"
		},
		{
			"bufferView":195,
			"componentType":5126,
			"count":2,
			"type":"VEC3"
		},
		{
			"bufferView":196,
			"componentType":5126,
			"count":85,
			"type":"VEC4"
		},
		{
			"bufferView":197,
			"componentType":5126,
			"count":2,
			"type":"VEC3"
		},
		{
			"bufferView":198,
			"componentType":5126,
			"count":2,
			"type":"VEC3"
		},
		{
			"bufferView":199,
			"componentType":5126,
			"count":85,
			"type":"VEC4"
		},
		{
			"bufferView":200,
			"componentType":5126,
			"count":2,
			"type":"VEC3"
		},
		{
			"bufferView":201,
			"componentType":5126,
			"count":2,
			"type":"VEC3"
		},
		{
			"bufferView":202,
			"componentType":5126,
			"count":2,
			"type":"VEC4"
		},
		{
			"bufferView":203,
			"componentType":5126,
			"count":2,
			"type":"VEC3"
		}
	],
	"bufferViews":[
		{
			"buffer":0,
			"byteLength":33660,
			"byteOffset":0,
			"target":34962
		},
		{
			"buffer":0,
			"byteLength":33660,
			"byteOffset":33660,
			"target":34962
		},
		{
			"buffer":0,
			"byteLength":22440,
			"byteOffset":67320,
			"target":34962
		},
		{
			"buffer":0,
			"byteLength":11220,
			"byteOffset":89760,
			"target":34962
		},
		{
			"buffer":0,
			"byteLength":44880,
			"byteOffset":100980,
			"target":34962
		},
		{
			"buffer":0,
			"byteLength":28380,
			"byteOffset":145860,
			"target":34963
		},
		{
			"buffer":0,
			"byteLength":4160,
			"byteOffset":174240
		},
		{
			"buffer":0,
			"byteLength":340,
			"byteOffset":178400
		},
		{
			"buffer":0,
			"byteLength":1020,
			"byteOffset":178740
		},
		{
			"buffer":0,
			"byteLength":1360,
			"byteOffset":179760
		},
		{
			"buffer":0,
			"byteLength":8,
			"byteOffset":181120
		},
		{
			"buffer":0,
			"byteLength":24,
			"byteOffset":181128
		},
		{
			"buffer":0,
			"byteLength":24,
			"byteOffset":181152
		},
		{
			"buffer":0,
			"byteLength":1360,
			"byteOffset":181176
		},
		{
			"buffer":0,
			"byteLength":24,
			"byteOffset":182536
		},
		{
			"buffer":0,
			"byteLength":24,
			"byteOffset":182560
		},
		{
			"buffer":0,
			"byteLength":1360,
			"byteOffset":182584
		},
		{
			"buffer":0,
			"byteLength":24,
			"byteOffset":183944
		},
		{
			"buffer":0,
			"byteLength":24,
			"byteOffset":183968
		},
		{
			"buffer":0,
			"byteLength":1360,
			"byteOffset":183992
		},
		{
			"buffer":0,
			"byteLength":24,
			"byteOffset":185352
		},
		{
			"buffer":0,
			"byteLength":1020,
			"byteOffset":185376
		},
		{
			"buffer":0,
			"byteLength":1360,
			"byteOffset":186396
		},
		{
			"buffer":0,
			"byteLength":24,
			"byteOffset":187756
		},
		{
			"buffer":0,
			"byteLength":1020,
			"byteOffset":187780
		},
		{
			"buffer":0,
			"byteLength":1360,
			"byteOffset":188800
		},
		{
			"buffer":0,
			"byteLength":24,
			"byteOffset":190160
		},
		{
			"buffer":0,
			"byteLength":1020,
			"byteOffset":190184
		},
		{
			"buffer":0,
			"byteLength":32,
			"byteOffset":191204
		},
		{
			"buffer":0,
			"byteLength":24,
			"byteOffset":191236
		},
		{
			"buffer":0,
			"byteLength":1020,
			"byteOffset":191260
		},
		{
			"buffer":0,
			"byteLength":1360,
			"byteOffset":192280
		},
		{
			"buffer":0,
			"byteLength":24,
			"byteOffset":193640
		},
		{
			"buffer":0,
			"byteLength":24,
			"byteOffset":193664
		},
		{
			"buffer":0,
			"byteLength":1360,
			"byteOffset":193688
		},
		{
			"buffer":0,
			"byteLength":24,
			"byteOffset":195048
		},
		{
			"buffer":0,
			"byteLength":1020,
			"byteOffset":195072
		},
		{
			"buffer":0,
			"byteLength":1360,
			"byteOffset":196092
		},
		{
			"buffer":0,
			"byteLength":24,
			"byteOffset":197452
		},
		{
			"buffer":0,
			"byteLength":24,
			"byteOffset":197476
		},
		{
			"buffer":0,
			"byteLength":1360,
			"byteOffset":197500
		},
		{
			"buffer":0,
			"byteLength":24,
			"byteOffset":198860
		},
		{
			"buffer":0,
			"byteLength":24,
			"byteOffset":198884
		},
		{
			"buffer":0,
			"byteLength":1360,
			"byteOffset":198908
		},
		{
			"buffer":0,
			"byteLength":24,
			"byteOffset":200268
		},
		{
			"buffer":0,
			"byteLength":24,
			"byteOffset":200292
		},
		{
			"buffer":0,
			"byteLength":1360,
			"byteOffset":200316
		},
		{
			"buffer":0,
			"byteLength":24,
			"byteOffset":201676
		},
		{
			"buffer":0,
			"byteLength":24,
			"byteOffset":201700
		},
		{
			"buffer":0,
			"byteLength":1360,
			"byteOffset":201724
		},
		{
			"buffer":0,
			"byteLength":24,
			"byteOffset":203084
		},
		{
			"buffer":0,
			"byteLength":24,
			"byteOffset":203108
		},
		{
			"buffer":0,
			"byteLength":32,
			"byteOffset":203132
		},
		{
			"buffer":0,
			"byteLength":24,
			"byteOffset":203164
		},
		{
			"buffer":0,
			"byteLength":1020,
			"byteOffset":203188
		},
		{
			"buffer":0,
			"byteLength":1360,
			"byteOffset":204208
		},
		{
			"buffer":0,
			"byteLength":24,
			"byteOffset":205568
		},
		{
			"buffer":0,
			"byteLength":24,
			"byteOffset":205592
		},
		{
			"buffer":0,
			"byteLength":1360,
			"byteOffset":205616
		},
		{
			"buffer":0,
			"byteLength":24,
			"byteOffset":206976
		},
		{
			"buffer":0,
			"byteLength":1020,
			"byteOffset":207000
		},
		{
			"buffer":0,
			"byteLength":1360,
			"byteOffset":208020
		},
		{
			"buffer":0,
			"byteLength":24,
			"byteOffset":209380
		},
		{
			"buffer":0,
			"byteLength":1020,
			"byteOffset":209404
		},
		{
			"buffer":0,
			"byteLength":32,
			"byteOffset":210424
		},
		{
			"buffer":0,
			"byteLength":24,
			"byteOffset":210456
		},
		{
			"buffer":0,
			"byteLength":24,
			"byteOffset":210480
		},
		{
			"buffer":0,
			"byteLength":1360,
			"byteOffset":210504
		},
		{
			"buffer":0,
			"byteLength":24,
			"byteOffset":211864
		},
		{
			"buffer":0,
			"byteLength":1020,
			"byteOffset":211888
		},
		{
			"buffer":0,
			"byteLength":1360,
			"byteOffset":212908
		},
		{
			"buffer":0,
			"byteLength":24,
			"byteOffset":214268
		},
		{
			"buffer":0,
			"byteLength":1020,
			"byteOffset":214292
		},
		{
			"buffer":0,
			"byteLength":1360,
			"byteOffset":215312
		},
		{
			"buffer":0,
			"byteLength":24,
			"byteOffset":216672
		},
		{
			"buffer":0,
			"byteLength":24,
			"byteOffset":216696
		},
		{
			"buffer":0,
			"byteLength":32,
			"byteOffset":216720
		},
		{
			"buffer":0,
			"byteLength":24,
			"byteOffset":216752
		},
		{
			"buffer":0,
			"byteLength":24,
			"byteOffset":216776
		},
		{
			"buffer":0,
			"byteLength":1360,
			"byteOffset":216800
		},
		{
			"buffer":0,
			"byteLength":24,
			"byteOffset":218160
		},
		{
			"buffer":0,
			"byteLength":24,
			"byteOffset":218184
		},
		{
			"buffer":0,
			"byteLength":1360,
			"byteOffset":218208
		},
		{
			"buffer":0,
			"byteLength":24,
			"byteOffset":219568
		},
		{
			"buffer":0,
			"byteLength":24,
			"byteOffset":219592
		},
		{
			"buffer":0,
			"byteLength":1360,
			"byteOffset":219616
		},
		{
			"buffer":0,
			"byteLength":24,
			"byteOffset":220976
		},
		{
			"buffer":0,
			"byteLength":24,
			"byteOffset":221000
		},
		{
			"buffer":0,
			"byteLength":32,
			"byteOffset":221024
		},
		{
			"buffer":0,
			"byteLength":24,
			"byteOffset":221056
		},
		{
			"buffer":0,
			"byteLength":24,
			"byteOffset":221080
		},
		{
			"buffer":0,
			"byteLength":1360,
			"byteOffset":221104
		},
		{
			"buffer":0,
			"byteLength":24,
			"byteOffset":222464
		},
		{
			"buffer":0,
			"byteLength":1020,
			"byteOffset":222488
		},
		{
			"buffer":0,
			"byteLength":1360,
			"byteOffset":223508
		},
		{
			"buffer":0,
			"byteLength":24,
			"byteOffset":224868
		},
		{
			"buffer":0,
			"byteLength":24,
			"byteOffset":224892
		},
		{
			"buffer":0,
			"byteLength":1360,
			"byteOffset":224916
		},
		{
			"buffer":0,
			"byteLength":24,
			"byteOffset":226276
		},
		{
			"buffer":0,
			"byteLength":1020,
			"byteOffset":226300
		},
		{
			"buffer":0,
			"byteLength":32,
			"byteOffset":227320
		},
		{
			"buffer":0,
			"byteLength":24,
			"byteOffset":227352
		},
		{
			"buffer":0,
			"byteLength":24,
			"byteOffset":227376
		},
		{
			"buffer":0,
			"byteLength":1360,
			"byteOffset":227400
		},
		{
			"buffer":0,
			"byteLength":24,
			"byteOffset":228760
		},
		{
			"buffer":0,
			"byteLength":1020,
			"byteOffset":228784
		},
		{
			"buffer":0,
			"byteLength":1360,
			"byteOffset":229804
		},
		{
			"buffer":0,
			"byteLength":24,
			"byteOffset":231164
		},
		{
			"buffer":0,
			"byteLength":1020,
			"byteOffset":231188
		},
		{
			"buffer":0,
			"byteLength":1360,
			"byteOffset":232208
		},
		{
			"buffer":0,
			"byteLength":24,
			"byteOffset":233568
		},
		{
			"buffer":0,
			"byteLength":24,
			"byteOffset":233592
		},
		{
			"buffer":0,
			"byteLength":1360,
			"byteOffset":233616
		},
		{
			"buffer":0,
			"byteLength":24,
			"byteOffset":234976
		},
		{
			"buffer":0,
			"byteLength":1020,
			"byteOffset":235000
		},
		{
			"buffer":0,
			"byteLength":1360,
			"byteOffset":236020
		},
		{
			"buffer":0,
			"byteLength":24,
			"byteOffset":237380
		},
		{
			"buffer":0,
			"byteLength":1020,
			"byteOffset":237404
		},
		{
			"buffer":0,
			"byteLength":1360,
			"byteOffset":238424
		},
		{
			"buffer":0,
			"byteLength":24,
			"byteOffset":239784
		},
		{
			"buffer":0,
			"byteLength":24,
			"byteOffset":239808
		},
		{
			"buffer":0,
			"byteLength":1360,
			"byteOffset":239832
		},
		{
			"buffer":0,
			"byteLength":24,
			"byteOffset":241192
		},
		{
			"buffer":0,
			"byteLength":24,
			"byteOffset":241216
		},
		{
			"buffer":0,
			"byteLength":32,
			"byteOffset":241240
		},
		{
			"buffer":0,
			"byteLength":24,
			"byteOffset":241272
		},
		{
			"buffer":0,
			"byteLength":24,
			"byteOffset":241296
		},
		{
			"buffer":0,
			"byteLength":1360,
			"byteOffset":241320
		},
		{
			"buffer":0,
			"byteLength":24,
			"byteOffset":242680
		},
		{
			"buffer":0,
			"byteLength":1020,
			"byteOffset":242704
		},
		{
			"buffer":0,
			"byteLength":1360,
			"byteOffset":243724
		},
		{
			"buffer":0,
			"byteLength":24,
			"byteOffset":245084
		},
		{
			"buffer":0,
			"byteLength":1020,
			"byteOffset":245108
		},
		{
			"buffer":0,
			"byteLength":1360,
			"byteOffset":246128
		},
		{
			"buffer":0,
			"byteLength":24,
			"byteOffset":247488
		},
		{
			"buffer":0,
			"byteLength":24,
			"byteOffset":247512
		},
		{
			"buffer":0,
			"byteLength":32,
			"byteOffset":247536
		},
		{
			"buffer":0,
			"byteLength":24,
			"byteOffset":247568
		},
		{
			"buffer":0,
			"byteLength":24,
			"byteOffset":247592
		},
		{
			"buffer":0,
			"byteLength":1360,
			"byteOffset":247616
		},
		{
			"buffer":0,
			"byteLength":24,
			"byteOffset":248976
		},
		{
			"buffer":0,
			"byteLength":1020,
			"byteOffset":249000
		},
		{
			"buffer":0,
			"byteLength":1360,
			"byteOffset":250020
		},
		{
			"buffer":0,
			"byteLength":24,
			"byteOffset":251380
		},
		{
			"buffer":0,
			"byteLength":24,
			"byteOffset":251404
		},
		{
			"buffer":0,
			"byteLength":1360,
			"byteOffset":251428
		},
		{
			"buffer":0,
			"byteLength":24,
			"byteOffset":252788
		},
		{
			"buffer":0,
			"byteLength":24,
			"byteOffset":252812
		},
		{
			"buffer":0,
			"byteLength":32,
			"byteOffset":252836
		},
		{
			"buffer":0,
			"byteLength":24,
			"byteOffset":252868
		},
		{
			"buffer":0,
			"byteLength":24,
			"byteOffset":252892
		},
		{
			"buffer":0,
			"byteLength":1360,
			"byteOffset":252916
		},
		{
			"buffer":0,
			"byteLength":24,
			"byteOffset":254276
		},
		{
			"buffer":0,
			"byteLength":1020,
			"byteOffset":254300
		},
		{
			"buffer":0,
			"byteLength":1360,
			"byteOffset":255320
		},
		{
			"buffer":0,
			"byteLength":24,
			"byteOffset":256680
		},
		{
			"buffer":0,
			"byteLength":24,
			"byteOffset":256704
		},
		{
			"buffer":0,
			"byteLength":1360,
			"byteOffset":256728
		},
		{
			"buffer":0,
			"byteLength":24,
			"byteOffset":258088
		},
		{
			"buffer":0,
			"byteLength":24,
			"byteOffset":258112
		},
		{
			"buffer":0,
			"byteLength":32,
			"byteOffset":258136
		},
		{
			"buffer":0,
			"byteLength":24,
			"byteOffset":258168
		},
		{
			"buffer":0,
			"byteLength":24,
			"byteOffset":258192
		},
		{
			"buffer":0,
			"byteLength":1360,
			"byteOffset":258216
		},
		{
			"buffer":0,
			"byteLength":24,
			"byteOffset":259576
		},
		{
			"buffer":0,
			"byteLength":24,
			"byteOffset":259600
		},
		{
			"buffer":0,
			"byteLength":1360,
			"byteOffset":259624
		},
		{
			"buffer":0,
			"byteLength":24,
			"byteOffset":260984
		},
		{
			"buffer":0,
			"byteLength":24,
			"byteOffset":261008
		},
		{
			"buffer":0,
			"byteLength":1360,
			"byteOffset":261032
		},
		{
			"buffer":0,
			"byteLength":24,
			"byteOffset":262392
		},
		{
			"buffer":0,
			"byteLength":24,
			"byteOffset":262416
		},
		{
			"buffer":0,
			"byteLength":32,
			"byteOffset":262440
		},
		{
			"buffer":0,
			"byteLength":24,
			"byteOffset":262472
		},
		{
			"buffer":0,
			"byteLength":24,
			"byteOffset":262496
		},
		{
			"buffer":0,
			"byteLength":1360,
			"byteOffset":262520
		},
		{
			"buffer":0,
			"byteLength":24,
			"byteOffset":263880
		},
		{
			"buffer":0,
			"byteLength":24,
			"byteOffset":263904
		},
		{
			"buffer":0,
			"byteLength":1360,
			"byteOffset":263928
		},
		{
			"buffer":0,
			"byteLength":24,
			"byteOffset":265288
		},
		{
			"buffer":0,
			"byteLength":24,
			"byteOffset":265312
		},
		{
			"buffer":0,
			"byteLength":1360,
			"byteOffset":265336
		},
		{
			"buffer":0,
			"byteLength":24,
			"byteOffset":266696
		},
		{
			"buffer":0,
			"byteLength":24,
			"byteOffset":266720
		},
		{
			"buffer":0,
			"byteLength":1360,
			"byteOffset":266744
		},
		{
			"buffer":0,
			"byteLength":24,
			"byteOffset":268104
		},
		{
			"buffer":0,
			"byteLength":24,
			"byteOffset":268128
		},
		{
			"buffer":0,
			"byteLength":32,
			"byteOffset":268152
		},
		{
			"buffer":0,
			"byteLength":24,
			"byteOffset":268184
		},
		{
			"buffer":0,
			"byteLength":24,
			"byteOffset":268208
		},
		{
			"buffer":0,
			"byteLength":1360,
			"byteOffset":268232
		},
		{
			"buffer":0,
			"byteLength":24,
			"byteOffset":269592
		},
		{
			"buffer":0,
			"byteLength":24,
			"byteOffset":269616
		},
		{
			"buffer":0,
			"byteLength":1360,
			"byteOffset":269640
		},
		{
			"buffer":0,
			"byteLength":24,
			"byteOffset":271000
		},
		{
			"buffer":0,
			"byteLength":24,
			"byteOffset":271024
		},
		{
			"buffer":0,
			"byteLength":1360,
			"byteOffset":271048
		},
		{
			"buffer":0,
			"byteLength":24,
			"byteOffset":272408
		},
		{
			"buffer":0,
			"byteLength":24,
			"byteOffset":272432
		},
		{
			"buffer":0,
			"byteLength":1360,
			"byteOffset":272456
		},
		{
			"buffer":0,
			"byteLength":24,
			"byteOffset":273816
		},
		{
			"buffer":0,
			"byteLength":24,
			"byteOffset":273840
		},
		{
			"buffer":0,
			"byteLength":32,
			"byteOffset":273864
		},
		{
			"buffer":0,
			"byteLength":24,
			"byteOffset":273896
		}
	],
	"samplers":[
		{
			"magFilter":9729,
			"minFilter":9987
		}
	],
	"buffers":[
		{
			"byteLength":273920,
			"uri":"RedCapRun.bin"
		}
	]
}
